<svg xmlns="http://www.w3.org/2000/svg" version="1.1" xmlns:xlink="http://www.w3.org/1999/xlink" xmlns:svgjs="http://svgjs.dev/svgjs" width="2000" height="696" viewBox="0 0 2000 696"><g transform="matrix(1,0,0,1,-1.2100523236842946,-0.0404238622761568)"><svg viewBox="0 0 396 138" data-background-color="#ffffff" preserveAspectRatio="xMidYMid meet" height="696" width="2000" xmlns="http://www.w3.org/2000/svg" xmlns:xlink="http://www.w3.org/1999/xlink"><g id="tight-bounds" transform="matrix(1,0,0,1,0.24040963991046738,0.008015076140964084)"><svg viewBox="0 0 395.52 137.98396984771807" height="137.98396984771807" width="395.52"><g><svg viewBox="0 0 661.2507651437455 230.68872785036177" height="137.98396984771807" width="395.52"><g transform="matrix(1,0,0,1,265.73076514374554,18.761081946382305)"><svg viewBox="0 0 395.52 193.16656395759716" height="193.16656395759716" width="395.52"><g id="textblocktransform"><svg viewBox="0 0 395.52 193.16656395759716" height="193.16656395759716" width="395.52" id="textblock"><g><svg viewBox="0 0 395.52 193.16656395759716" height="193.16656395759716" width="395.52"><g transform="matrix(1,0,0,1,0,0)"><svg width="395.52" viewBox="1.609823385706477e-15 -36.5 186.54999999999998 82.44" height="193.16656395759716" data-palette-color="#1976d2"><svg></svg><svg></svg><g class="wordmark-text-0" data-fill-palette-color="primary" id="text-0"><path d="M18.75-34.4v0c-0.44 0-0.953 0.09-1.54 0.27-0.587 0.18-1.183 0.517-1.79 1.01-0.613 0.5-1.213 1.197-1.8 2.09-0.587 0.893-1.11 2.053-1.57 3.48-0.467 1.42-0.84 3.15-1.12 5.19-0.287 2.033-0.43 4.433-0.43 7.2v0c0 2.633 0.143 4.92 0.43 6.86 0.28 1.933 0.66 3.58 1.14 4.94 0.48 1.36 1.03 2.473 1.65 3.34 0.62 0.86 1.27 1.53 1.95 2.01 0.687 0.48 1.37 0.81 2.05 0.99 0.687 0.18 1.33 0.27 1.93 0.27v0c0.64 0 1.283-0.083 1.93-0.25 0.653-0.16 1.293-0.397 1.92-0.71 0.627-0.307 1.23-0.68 1.81-1.12 0.573-0.44 1.103-0.943 1.59-1.51v0l1.1 1.1c-0.487 0.6-1.07 1.213-1.75 1.84-0.687 0.627-1.483 1.197-2.39 1.71-0.9 0.513-1.91 0.933-3.03 1.26-1.127 0.32-2.373 0.48-3.74 0.48v0c-2.133 0-4.113-0.407-5.94-1.22-1.833-0.813-3.43-2.077-4.79-3.79-1.36-1.72-2.427-3.923-3.2-6.61-0.773-2.68-1.16-5.893-1.16-9.64v0c0-3.513 0.407-6.597 1.22-9.25 0.813-2.653 1.92-4.873 3.32-6.66 1.4-1.78 3.043-3.12 4.93-4.02 1.893-0.907 3.903-1.36 6.03-1.36v0c1.42 0 2.71 0.133 3.87 0.4 1.167 0.273 2.173 0.667 3.02 1.18 0.847 0.507 1.5 1.14 1.96 1.9 0.467 0.76 0.7 1.62 0.7 2.58v0c0 0.433-0.073 0.893-0.22 1.38-0.147 0.48-0.37 0.917-0.67 1.31-0.3 0.4-0.67 0.727-1.11 0.98-0.44 0.253-0.953 0.38-1.54 0.38v0c-0.52 0-0.923-0.113-1.21-0.34-0.28-0.233-0.49-0.537-0.63-0.91-0.14-0.373-0.23-0.8-0.27-1.28-0.04-0.48-0.07-0.973-0.09-1.48-0.013-0.5-0.05-0.99-0.11-1.47-0.053-0.48-0.167-0.907-0.34-1.28-0.167-0.38-0.413-0.683-0.74-0.91-0.327-0.227-0.783-0.34-1.37-0.34zM38.09-21.29v19.09c0 0.213-0.037 0.47-0.11 0.77-0.073 0.3-0.247 0.587-0.52 0.86-0.267 0.267-0.653 0.493-1.16 0.68-0.5 0.187-1.183 0.28-2.05 0.28v0c-0.86 0-1.533-0.1-2.02-0.3-0.493-0.207-0.86-0.447-1.1-0.72-0.247-0.28-0.397-0.567-0.45-0.86-0.06-0.293-0.09-0.53-0.09-0.71v0-18.84c0-0.473-0.11-0.887-0.33-1.24-0.22-0.347-0.59-0.52-1.11-0.52v0c-0.273 0-0.51 0.047-0.71 0.14-0.193 0.1-0.403 0.24-0.63 0.42v0l-0.52-0.61c0.38-0.313 0.8-0.62 1.26-0.92 0.467-0.3 0.967-0.563 1.5-0.79 0.54-0.227 1.12-0.413 1.74-0.56 0.613-0.147 1.263-0.22 1.95-0.22v0c1.06 0 1.883 0.143 2.47 0.43 0.58 0.28 1.01 0.63 1.29 1.05 0.28 0.413 0.447 0.857 0.5 1.33 0.06 0.467 0.09 0.88 0.09 1.24zM29.83-30.91v0c0-0.453 0.103-0.887 0.31-1.3 0.2-0.42 0.483-0.783 0.85-1.09 0.367-0.307 0.79-0.55 1.27-0.73 0.48-0.18 1.007-0.27 1.58-0.27v0c0.553 0 1.07 0.09 1.55 0.27 0.48 0.18 0.9 0.423 1.26 0.73 0.353 0.307 0.633 0.67 0.84 1.09 0.2 0.413 0.3 0.847 0.3 1.3v0c0 0.473-0.1 0.913-0.3 1.32-0.207 0.407-0.487 0.76-0.84 1.06-0.36 0.3-0.78 0.54-1.26 0.72-0.48 0.18-0.997 0.27-1.55 0.27v0c-0.573 0-1.1-0.09-1.58-0.27-0.48-0.18-0.903-0.42-1.27-0.72-0.367-0.3-0.65-0.653-0.85-1.06-0.207-0.407-0.31-0.847-0.31-1.32zM58.59-12.16v0c0-2.047-0.093-3.687-0.28-4.92-0.187-1.227-0.433-2.163-0.74-2.81-0.313-0.64-0.657-1.06-1.03-1.26-0.373-0.207-0.753-0.31-1.14-0.31v0c-0.473 0-0.893 0.127-1.26 0.38-0.367 0.253-0.683 0.543-0.95 0.87-0.273 0.32-0.503 0.643-0.69 0.97-0.187 0.327-0.343 0.57-0.47 0.73v0 16.31c0 0.213-0.033 0.47-0.1 0.77-0.067 0.3-0.227 0.587-0.48 0.86-0.253 0.267-0.627 0.493-1.12 0.68-0.5 0.187-1.18 0.28-2.04 0.28v0c-0.86 0-1.54-0.1-2.04-0.3-0.493-0.207-0.87-0.447-1.13-0.72-0.26-0.28-0.423-0.567-0.49-0.86-0.067-0.293-0.1-0.53-0.1-0.71v0-18.84c0-0.473-0.11-0.887-0.33-1.24-0.22-0.347-0.59-0.52-1.11-0.52v0c-0.273 0-0.51 0.047-0.71 0.14-0.193 0.1-0.403 0.24-0.63 0.42v0l-0.51-0.61c0.373-0.313 0.79-0.62 1.25-0.92 0.467-0.3 0.967-0.563 1.5-0.79 0.54-0.227 1.12-0.413 1.74-0.56 0.62-0.147 1.27-0.22 1.95-0.22v0c1.06 0 1.883 0.173 2.47 0.52 0.587 0.353 1.017 0.773 1.29 1.26 0.28 0.487 0.447 0.997 0.5 1.53 0.06 0.527 0.09 0.97 0.09 1.33v0c0.6-0.867 1.283-1.64 2.05-2.32v0c0.307-0.293 0.65-0.58 1.03-0.86 0.387-0.273 0.797-0.52 1.23-0.74 0.427-0.22 0.88-0.397 1.36-0.53 0.48-0.127 0.973-0.19 1.48-0.19v0c1.107 0 2.087 0.21 2.94 0.63 0.853 0.427 1.573 1.137 2.16 2.13 0.587 0.993 1.037 2.307 1.35 3.94 0.307 1.633 0.46 3.663 0.46 6.09v0c0 2.36-0.213 4.41-0.64 6.15-0.42 1.747-0.973 3.23-1.66 4.45-0.68 1.22-1.453 2.217-2.32 2.99-0.86 0.773-1.73 1.38-2.61 1.82-0.88 0.44-1.72 0.743-2.52 0.91-0.807 0.173-1.503 0.267-2.09 0.28v0l-0.27-1c0.487-0.113 0.937-0.293 1.35-0.54 0.42-0.24 0.8-0.597 1.14-1.07 0.34-0.473 0.64-1.07 0.9-1.79 0.26-0.727 0.483-1.637 0.67-2.73 0.193-1.087 0.333-2.377 0.42-3.87 0.087-1.487 0.13-3.223 0.13-5.21zM87.08-16.89l-9.64 5.68c0 0.527 0.077 1.093 0.23 1.7 0.16 0.613 0.383 1.227 0.67 1.84 0.293 0.62 0.657 1.21 1.09 1.77 0.433 0.567 0.93 1.07 1.49 1.51 0.56 0.433 1.183 0.783 1.87 1.05 0.68 0.26 1.427 0.39 2.24 0.39v0c0.573 0 1.103-0.067 1.59-0.2 0.487-0.127 0.943-0.307 1.37-0.54 0.42-0.227 0.827-0.49 1.22-0.79 0.387-0.3 0.777-0.62 1.17-0.96v0l0.61 0.58c-0.373 0.507-0.853 1.06-1.44 1.66-0.587 0.607-1.293 1.173-2.12 1.7-0.833 0.527-1.803 0.967-2.91 1.32-1.107 0.347-2.367 0.52-3.78 0.52v0c-1.42 0-2.8-0.257-4.14-0.77-1.347-0.513-2.54-1.28-3.58-2.3-1.04-1.027-1.873-2.307-2.5-3.84-0.627-1.527-0.94-3.317-0.94-5.37v0c0-1.48 0.187-2.84 0.56-4.08 0.373-1.233 0.883-2.347 1.53-3.34 0.64-0.993 1.387-1.863 2.24-2.61 0.86-0.753 1.76-1.377 2.7-1.87 0.947-0.493 1.91-0.867 2.89-1.12 0.987-0.253 1.937-0.38 2.85-0.38v0c1.207 0 2.257 0.13 3.15 0.39 0.893 0.26 1.637 0.61 2.23 1.05 0.593 0.44 1.037 0.947 1.33 1.52 0.293 0.58 0.44 1.187 0.44 1.82v0c0 0.767-0.22 1.457-0.66 2.07-0.44 0.607-1.027 1.14-1.76 1.6zM77.2-13.21l5.15-2.95c0.213-0.133 0.387-0.26 0.52-0.38 0.14-0.12 0.25-0.267 0.33-0.44 0.087-0.173 0.15-0.383 0.19-0.63 0.04-0.253 0.06-0.567 0.06-0.94v0c0-0.413-0.047-0.867-0.14-1.36-0.087-0.493-0.237-0.96-0.45-1.4-0.213-0.44-0.48-0.807-0.8-1.1-0.327-0.293-0.72-0.44-1.18-0.44v0c-0.587 0-1.087 0.173-1.5 0.52-0.413 0.353-0.753 0.807-1.02 1.36-0.273 0.553-0.487 1.183-0.64 1.89-0.153 0.707-0.27 1.42-0.35 2.14-0.08 0.713-0.13 1.4-0.15 2.06-0.013 0.66-0.02 1.217-0.02 1.67zM115.14-18.51v16.36c0 0.213-0.033 0.467-0.1 0.76-0.067 0.293-0.227 0.57-0.48 0.83-0.253 0.26-0.63 0.483-1.13 0.67-0.507 0.187-1.19 0.28-2.05 0.28v0c-0.867 0-1.547-0.1-2.04-0.3-0.5-0.207-0.873-0.447-1.12-0.72-0.253-0.28-0.413-0.567-0.48-0.86-0.067-0.293-0.1-0.53-0.1-0.71v0-17.26c0-0.227-0.033-0.457-0.1-0.69-0.06-0.24-0.157-0.457-0.29-0.65-0.127-0.193-0.29-0.353-0.49-0.48-0.193-0.12-0.42-0.18-0.68-0.18v0c-0.44 0-0.87 0.127-1.29 0.38-0.427 0.253-0.823 0.543-1.19 0.87-0.367 0.32-0.683 0.643-0.95 0.97-0.267 0.327-0.457 0.57-0.57 0.73v0 16.36c0 0.213-0.033 0.467-0.1 0.76-0.067 0.293-0.227 0.57-0.48 0.83-0.253 0.26-0.627 0.483-1.12 0.67-0.5 0.187-1.18 0.28-2.04 0.28v0c-0.86 0-1.54-0.1-2.04-0.3-0.493-0.207-0.87-0.447-1.13-0.72-0.26-0.28-0.423-0.567-0.49-0.86-0.067-0.293-0.1-0.53-0.1-0.71v0-18.84c0-0.473-0.11-0.887-0.33-1.24-0.22-0.347-0.59-0.52-1.11-0.52v0c-0.28 0-0.517 0.047-0.71 0.14-0.193 0.1-0.403 0.24-0.63 0.42v0l-0.52-0.61c0.38-0.313 0.8-0.62 1.26-0.92 0.467-0.3 0.967-0.563 1.5-0.79 0.54-0.227 1.12-0.413 1.74-0.56 0.613-0.147 1.263-0.22 1.95-0.22v0c1.06 0 1.883 0.173 2.47 0.52 0.58 0.353 1.01 0.773 1.29 1.26 0.273 0.487 0.44 0.997 0.5 1.53 0.06 0.527 0.09 0.97 0.09 1.33v0c0.76-0.867 1.58-1.64 2.46-2.32v0c0.36-0.293 0.757-0.58 1.19-0.86 0.427-0.273 0.87-0.52 1.33-0.74 0.453-0.22 0.923-0.397 1.41-0.53 0.487-0.127 0.977-0.19 1.47-0.19v0c0.94 0 1.743 0.17 2.41 0.51 0.667 0.34 1.203 0.75 1.61 1.23 0.413 0.48 0.713 0.987 0.9 1.52 0.187 0.527 0.28 0.987 0.28 1.38v0c0.78-0.867 1.6-1.64 2.46-2.32v0c0.36-0.293 0.75-0.58 1.17-0.86 0.427-0.273 0.87-0.52 1.33-0.74 0.467-0.22 0.94-0.397 1.42-0.53 0.48-0.127 0.963-0.19 1.45-0.19v0c0.947 0 1.753 0.173 2.42 0.52 0.667 0.353 1.203 0.813 1.61 1.38 0.407 0.573 0.703 1.217 0.89 1.93 0.187 0.72 0.28 1.437 0.28 2.15v0 15.11c0 0.147 0.01 0.307 0.03 0.48 0.013 0.167 0.053 0.33 0.12 0.49 0.067 0.153 0.17 0.277 0.31 0.37 0.133 0.1 0.313 0.15 0.54 0.15v0c0.313 0 0.59-0.11 0.83-0.33 0.247-0.22 0.477-0.443 0.69-0.67v0l0.58 0.51c-0.227 0.347-0.527 0.727-0.9 1.14-0.373 0.413-0.817 0.807-1.33 1.18-0.513 0.373-1.107 0.687-1.78 0.94-0.673 0.253-1.433 0.38-2.28 0.38v0c-0.72 0-1.343-0.093-1.87-0.28-0.533-0.187-0.98-0.44-1.34-0.76-0.367-0.313-0.64-0.687-0.82-1.12-0.18-0.433-0.27-0.893-0.27-1.38v0-16.31c0-0.227-0.033-0.457-0.1-0.69-0.067-0.24-0.16-0.457-0.28-0.65-0.12-0.193-0.28-0.353-0.48-0.48-0.193-0.12-0.42-0.18-0.68-0.18v0c-0.44 0-0.877 0.127-1.31 0.38-0.427 0.253-0.823 0.543-1.19 0.87-0.367 0.32-0.68 0.643-0.94 0.97-0.26 0.327-0.447 0.57-0.56 0.73zM145.58-6.69v-5.96c0-0.407-0.13-0.713-0.39-0.92-0.26-0.213-0.593-0.32-1-0.32v0c-0.573 0-1.113 0.13-1.62 0.39-0.513 0.26-0.967 0.643-1.36 1.15-0.387 0.5-0.697 1.12-0.93 1.86-0.227 0.74-0.34 1.6-0.34 2.58v0c0 0.947 0.07 1.727 0.21 2.34 0.14 0.62 0.327 1.113 0.56 1.48 0.233 0.367 0.507 0.623 0.82 0.77 0.307 0.147 0.63 0.22 0.97 0.22v0c0.427 0 0.827-0.11 1.2-0.33 0.373-0.22 0.7-0.5 0.98-0.84 0.273-0.347 0.493-0.73 0.66-1.15 0.16-0.42 0.24-0.843 0.24-1.27zM141.7-23.34v0c-0.553 0-1.067 0.067-1.54 0.2-0.473 0.127-0.88 0.287-1.22 0.48-0.34 0.2-0.61 0.417-0.81 0.65-0.193 0.233-0.29 0.457-0.29 0.67v0c0 0.247 0.127 0.423 0.38 0.53 0.253 0.107 0.533 0.227 0.84 0.36 0.313 0.14 0.593 0.337 0.84 0.59 0.253 0.253 0.38 0.64 0.38 1.16v0c0 0.34-0.067 0.653-0.2 0.94-0.14 0.287-0.33 0.54-0.57 0.76-0.233 0.22-0.51 0.39-0.83 0.51-0.313 0.12-0.64 0.18-0.98 0.18v0c-0.913 0-1.65-0.31-2.21-0.93-0.567-0.613-0.85-1.433-0.85-2.46v0c0-0.993 0.26-1.843 0.78-2.55 0.527-0.713 1.207-1.297 2.04-1.75 0.84-0.453 1.79-0.79 2.85-1.01 1.053-0.22 2.11-0.33 3.17-0.33v0c1.273 0 2.487 0.137 3.64 0.41 1.153 0.28 2.173 0.72 3.06 1.32 0.887 0.6 1.597 1.367 2.13 2.3 0.527 0.927 0.79 2.05 0.79 3.37v0 13.79c0 0.147 0.01 0.31 0.03 0.49 0.013 0.18 0.053 0.343 0.12 0.49 0.06 0.147 0.157 0.267 0.29 0.36 0.133 0.1 0.32 0.15 0.56 0.15v0c0.293 0 0.567-0.11 0.82-0.33 0.253-0.22 0.477-0.443 0.67-0.67v0l0.61 0.51c-0.247 0.34-0.54 0.713-0.88 1.12-0.34 0.407-0.753 0.79-1.24 1.15-0.493 0.36-1.063 0.66-1.71 0.9-0.653 0.247-1.393 0.37-2.22 0.37v0c-1.027 0-1.94-0.303-2.74-0.91-0.793-0.613-1.313-1.553-1.56-2.82v0c-0.52 0.7-1.06 1.283-1.62 1.75-0.567 0.473-1.143 0.857-1.73 1.15-0.58 0.293-1.17 0.507-1.77 0.64-0.593 0.127-1.19 0.19-1.79 0.19v0c-0.78 0-1.537-0.123-2.27-0.37-0.733-0.24-1.39-0.627-1.97-1.16-0.573-0.527-1.037-1.213-1.39-2.06-0.347-0.847-0.52-1.88-0.52-3.1v0c0-1.48 0.293-2.693 0.88-3.64 0.587-0.94 1.353-1.733 2.3-2.38 0.953-0.64 2.037-1.187 3.25-1.64 1.213-0.46 2.453-0.943 3.72-1.45v0c0.947-0.373 1.637-0.93 2.07-1.67 0.427-0.74 0.64-1.5 0.64-2.28v0c0-1.207-0.353-2.17-1.06-2.89-0.707-0.727-1.67-1.09-2.89-1.09z" fill="#1976d2" fill-rule="nonzero" stroke="none" stroke-width="1" stroke-linecap="butt" stroke-linejoin="miter" stroke-miterlimit="10" stroke-dasharray="" stroke-dashoffset="0" font-family="none" font-weight="none" font-size="none" text-anchor="none" style="mix-blend-mode: normal" data-fill-palette-color="primary" opacity="1"></path><path transform="translate(0,45.55)" d="M20.41-32.15v28.95c0 1.253-0.33 2.167-0.99 2.74-0.66 0.567-1.663 0.85-3.01 0.85v0c-1.367 0-2.377-0.283-3.03-0.85-0.653-0.573-0.98-1.487-0.98-2.74v0-29.2c0-0.893-0.617-1.34-1.85-1.34v0c-0.9 0-1.81 0.133-2.73 0.4-0.913 0.273-1.743 0.64-2.49 1.1-0.74 0.467-1.343 1.02-1.81 1.66-0.473 0.647-0.71 1.343-0.71 2.09v0c0 0.52 0.07 0.933 0.21 1.24 0.133 0.313 0.29 0.547 0.47 0.7 0.18 0.153 0.363 0.25 0.55 0.29 0.187 0.04 0.32 0.06 0.4 0.06v0c0.407 0 0.74-0.067 1-0.2 0.26-0.14 0.497-0.287 0.71-0.44 0.213-0.16 0.413-0.307 0.6-0.44 0.187-0.14 0.403-0.21 0.65-0.21v0c0.193 0 0.4 0.043 0.62 0.13 0.22 0.093 0.423 0.237 0.61 0.43 0.187 0.193 0.347 0.45 0.48 0.77 0.127 0.32 0.19 0.707 0.19 1.16v0c0 0.653-0.127 1.213-0.38 1.68-0.253 0.473-0.577 0.87-0.97 1.19-0.4 0.313-0.857 0.55-1.37 0.71-0.513 0.153-1.023 0.23-1.53 0.23v0c-0.78 0-1.483-0.133-2.11-0.4-0.627-0.273-1.16-0.647-1.6-1.12-0.44-0.467-0.773-1.02-1-1.66-0.227-0.633-0.34-1.307-0.34-2.02v0c0-1.353 0.253-2.547 0.76-3.58 0.5-1.033 1.21-1.923 2.13-2.67 0.92-0.747 2.023-1.37 3.31-1.87 1.287-0.493 2.71-0.887 4.27-1.18 1.567-0.293 3.24-0.503 5.02-0.63 1.78-0.12 3.63-0.18 5.55-0.18v0c4.66 0 8.187 0.89 10.58 2.67 2.393 1.787 3.59 4.347 3.59 7.68v0c0 1.627-0.217 3.067-0.65 4.32-0.433 1.253-1.013 2.333-1.74 3.24-0.72 0.9-1.553 1.633-2.5 2.2-0.94 0.56-1.917 0.96-2.93 1.2-1.007 0.247-2.02 0.347-3.04 0.3-1.013-0.053-1.96-0.24-2.84-0.56v0l0.34-1.05c1.22 0.373 2.227 0.383 3.02 0.03 0.787-0.347 1.403-0.967 1.85-1.86 0.447-0.9 0.757-2.033 0.93-3.4 0.173-1.367 0.26-2.873 0.26-4.52v0c0-1.233-0.133-2.36-0.4-3.38-0.26-1.013-0.613-1.88-1.06-2.6-0.447-0.713-0.967-1.27-1.56-1.67-0.593-0.4-1.223-0.6-1.89-0.6v0c-0.52 0-0.947 0.077-1.28 0.23-0.333 0.16-0.593 0.357-0.78 0.59-0.193 0.233-0.327 0.487-0.4 0.76-0.073 0.267-0.117 0.523-0.13 0.77zM48.73-6.69v-5.96c0-0.407-0.13-0.713-0.39-0.92-0.26-0.213-0.593-0.32-1-0.32v0c-0.573 0-1.113 0.13-1.62 0.39-0.513 0.26-0.967 0.643-1.36 1.15-0.393 0.5-0.703 1.12-0.93 1.86-0.227 0.74-0.34 1.6-0.34 2.58v0c0 0.947 0.07 1.727 0.21 2.34 0.14 0.62 0.327 1.113 0.56 1.48 0.233 0.367 0.507 0.623 0.82 0.77 0.307 0.147 0.63 0.22 0.97 0.22v0c0.427 0 0.827-0.11 1.2-0.33 0.373-0.22 0.7-0.5 0.98-0.84 0.273-0.347 0.493-0.73 0.66-1.15 0.16-0.42 0.24-0.843 0.24-1.27zM44.85-23.34v0c-0.553 0-1.067 0.067-1.54 0.2-0.473 0.127-0.88 0.287-1.22 0.48-0.34 0.2-0.61 0.417-0.81 0.65-0.193 0.233-0.29 0.457-0.29 0.67v0c0 0.247 0.127 0.423 0.38 0.53 0.253 0.107 0.533 0.227 0.84 0.36 0.313 0.14 0.593 0.337 0.84 0.59 0.253 0.253 0.38 0.64 0.38 1.16v0c0 0.34-0.067 0.653-0.2 0.94-0.14 0.287-0.33 0.54-0.57 0.76-0.233 0.22-0.51 0.39-0.83 0.51-0.313 0.12-0.643 0.18-0.99 0.18v0c-0.907 0-1.64-0.31-2.2-0.93-0.567-0.613-0.85-1.433-0.85-2.46v0c0-0.993 0.26-1.843 0.78-2.55 0.527-0.713 1.207-1.297 2.04-1.75 0.84-0.453 1.79-0.79 2.85-1.01 1.053-0.22 2.11-0.33 3.17-0.33v0c1.273 0 2.487 0.137 3.64 0.41 1.153 0.28 2.173 0.72 3.06 1.32 0.887 0.6 1.597 1.367 2.13 2.3 0.527 0.927 0.79 2.05 0.79 3.37v0 13.79c0 0.147 0.007 0.31 0.02 0.49 0.02 0.18 0.063 0.343 0.13 0.49 0.06 0.147 0.157 0.267 0.29 0.36 0.127 0.1 0.313 0.15 0.56 0.15v0c0.293 0 0.567-0.11 0.82-0.33 0.253-0.22 0.477-0.443 0.67-0.67v0l0.61 0.51c-0.247 0.34-0.54 0.713-0.88 1.12-0.34 0.407-0.753 0.79-1.24 1.15-0.493 0.36-1.063 0.66-1.71 0.9-0.653 0.247-1.393 0.37-2.22 0.37v0c-1.027 0-1.94-0.303-2.74-0.91-0.793-0.613-1.313-1.553-1.56-2.82v0c-0.52 0.7-1.06 1.283-1.62 1.75-0.567 0.473-1.143 0.857-1.73 1.15-0.58 0.293-1.17 0.507-1.77 0.64-0.593 0.127-1.19 0.19-1.79 0.19v0c-0.78 0-1.537-0.123-2.27-0.37-0.733-0.24-1.39-0.627-1.97-1.16-0.573-0.527-1.037-1.213-1.39-2.06-0.347-0.847-0.52-1.88-0.52-3.1v0c0-1.48 0.293-2.693 0.88-3.64 0.587-0.94 1.353-1.733 2.3-2.38 0.953-0.64 2.037-1.187 3.25-1.64 1.213-0.46 2.453-0.943 3.72-1.45v0c0.947-0.373 1.637-0.93 2.07-1.67 0.427-0.74 0.64-1.5 0.64-2.28v0c0-1.207-0.353-2.17-1.06-2.89-0.707-0.727-1.67-1.09-2.89-1.09zM70.43-20.19v0c0.62-0.947 1.28-1.8 1.98-2.56v0c0.293-0.327 0.61-0.647 0.95-0.96 0.347-0.307 0.703-0.583 1.07-0.83 0.367-0.24 0.743-0.433 1.13-0.58 0.393-0.147 0.783-0.22 1.17-0.22v0c0.833 0 1.487 0.247 1.96 0.74 0.467 0.5 0.7 1.197 0.7 2.09v0c0 0.553-0.043 1.087-0.13 1.6-0.087 0.513-0.26 1.137-0.52 1.87v0h-0.69c-0.093-0.507-0.32-0.927-0.68-1.26-0.36-0.333-0.88-0.5-1.56-0.5v0c-0.507 0-1.003 0.093-1.49 0.28-0.493 0.187-0.97 0.42-1.43 0.7-0.467 0.273-0.907 0.573-1.32 0.9-0.413 0.327-0.793 0.637-1.14 0.93v0 15.84c0 0.213-0.03 0.467-0.09 0.76-0.067 0.293-0.227 0.57-0.48 0.83-0.253 0.26-0.627 0.483-1.12 0.67-0.5 0.187-1.18 0.28-2.04 0.28v0c-0.86 0-1.54-0.1-2.04-0.3-0.493-0.207-0.87-0.447-1.13-0.72-0.267-0.28-0.43-0.567-0.49-0.86-0.067-0.293-0.1-0.53-0.1-0.71v0-18.84c0-0.473-0.11-0.887-0.33-1.24-0.22-0.347-0.59-0.52-1.11-0.52v0c-0.28 0-0.517 0.047-0.71 0.14-0.193 0.1-0.403 0.24-0.63 0.42v0l-0.52-0.61c0.38-0.313 0.8-0.62 1.26-0.92 0.467-0.3 0.967-0.563 1.5-0.79 0.54-0.227 1.12-0.413 1.74-0.56 0.613-0.147 1.263-0.22 1.95-0.22v0c0.7 0 1.297 0.093 1.79 0.28 0.5 0.187 0.907 0.43 1.22 0.73 0.32 0.3 0.57 0.637 0.75 1.01 0.18 0.38 0.313 0.76 0.4 1.14 0.093 0.38 0.147 0.747 0.16 1.1 0.013 0.347 0.02 0.643 0.02 0.89zM92.99-6.69v-5.96c0-0.407-0.13-0.713-0.39-0.92-0.26-0.213-0.593-0.32-1-0.32v0c-0.567 0-1.107 0.13-1.62 0.39-0.513 0.26-0.967 0.643-1.36 1.15-0.387 0.5-0.693 1.12-0.92 1.86-0.233 0.74-0.35 1.6-0.35 2.58v0c0 0.947 0.07 1.727 0.21 2.34 0.14 0.62 0.327 1.113 0.56 1.48 0.24 0.367 0.513 0.623 0.82 0.77 0.307 0.147 0.633 0.22 0.98 0.22v0c0.42 0 0.817-0.11 1.19-0.33 0.373-0.22 0.7-0.5 0.98-0.84 0.273-0.347 0.493-0.73 0.66-1.15 0.16-0.42 0.24-0.843 0.24-1.27zM89.11-23.34v0c-0.553 0-1.067 0.067-1.54 0.2-0.467 0.127-0.873 0.287-1.22 0.48-0.34 0.2-0.607 0.417-0.8 0.65-0.2 0.233-0.3 0.457-0.3 0.67v0c0 0.247 0.127 0.423 0.38 0.53 0.253 0.107 0.533 0.227 0.84 0.36 0.313 0.14 0.597 0.337 0.85 0.59 0.253 0.253 0.38 0.64 0.38 1.16v0c0 0.34-0.07 0.653-0.21 0.94-0.14 0.287-0.327 0.54-0.56 0.76-0.24 0.22-0.517 0.39-0.83 0.51-0.32 0.12-0.65 0.18-0.99 0.18v0c-0.913 0-1.65-0.31-2.21-0.93-0.56-0.613-0.84-1.433-0.84-2.46v0c0-0.993 0.26-1.843 0.78-2.55 0.52-0.713 1.2-1.297 2.04-1.75 0.833-0.453 1.78-0.79 2.84-1.01 1.06-0.22 2.117-0.33 3.17-0.33v0c1.273 0 2.487 0.137 3.64 0.41 1.153 0.28 2.177 0.72 3.07 1.32 0.887 0.6 1.593 1.367 2.12 2.3 0.527 0.927 0.79 2.05 0.79 3.37v0 13.79c0 0.147 0.01 0.31 0.03 0.49 0.013 0.18 0.053 0.343 0.12 0.49 0.067 0.147 0.163 0.267 0.29 0.36 0.133 0.1 0.32 0.15 0.56 0.15v0c0.293 0 0.567-0.11 0.82-0.33 0.253-0.22 0.477-0.443 0.67-0.67v0l0.61 0.51c-0.24 0.34-0.533 0.713-0.88 1.12-0.34 0.407-0.753 0.79-1.24 1.15-0.487 0.36-1.057 0.66-1.71 0.9-0.653 0.247-1.393 0.37-2.22 0.37v0c-1.027 0-1.94-0.303-2.74-0.91-0.793-0.613-1.313-1.553-1.56-2.82v0c-0.52 0.7-1.06 1.283-1.62 1.75-0.56 0.473-1.133 0.857-1.72 1.15-0.587 0.293-1.177 0.507-1.77 0.64-0.593 0.127-1.193 0.19-1.8 0.19v0c-0.78 0-1.537-0.123-2.27-0.37-0.733-0.24-1.387-0.627-1.96-1.16-0.58-0.527-1.043-1.213-1.39-2.06-0.353-0.847-0.53-1.88-0.53-3.1v0c0-1.48 0.293-2.693 0.88-3.64 0.587-0.94 1.357-1.733 2.31-2.38 0.947-0.64 2.027-1.187 3.24-1.64 1.213-0.46 2.457-0.943 3.73-1.45v0c0.94-0.373 1.627-0.93 2.06-1.67 0.433-0.74 0.65-1.5 0.65-2.28v0c0-1.207-0.357-2.17-1.07-2.89-0.707-0.727-1.67-1.09-2.89-1.09zM120.46-13.26v0c0-0.18 0-0.54 0-1.08 0-0.547-0.017-1.173-0.05-1.88-0.033-0.713-0.09-1.467-0.17-2.26-0.08-0.8-0.21-1.54-0.39-2.22v0c-0.393-0.507-0.83-0.96-1.31-1.36-0.48-0.4-1.093-0.6-1.84-0.6v0c-1.273 0-2.207 0.83-2.8 2.49-0.593 1.66-0.89 4.233-0.89 7.72v0c0 1.527 0.07 2.927 0.21 4.2 0.14 1.267 0.35 2.357 0.63 3.27 0.287 0.913 0.653 1.62 1.1 2.12 0.453 0.507 0.987 0.76 1.6 0.76v0c2.607 0 3.91-3.72 3.91-11.16zM120.17-24v0c-0.313-1.627-0.747-3.143-1.3-4.55-0.553-1.407-1.217-2.623-1.99-3.65-0.773-1.027-1.65-1.833-2.63-2.42-0.987-0.587-2.05-0.88-3.19-0.88v0c-0.653 0-1.243 0.083-1.77 0.25-0.527 0.16-0.987 0.35-1.38 0.57-0.393 0.22-0.713 0.43-0.96 0.63-0.253 0.207-0.437 0.36-0.55 0.46v0l-0.64-0.86c0.393-0.507 0.87-0.977 1.43-1.41 0.56-0.44 1.173-0.817 1.84-1.13 0.667-0.307 1.373-0.55 2.12-0.73 0.74-0.18 1.473-0.27 2.2-0.27v0c2.413 0 4.53 0.527 6.35 1.58 1.827 1.047 3.35 2.53 4.57 4.45 1.22 1.92 2.14 4.24 2.76 6.96 0.613 2.72 0.92 5.74 0.92 9.06v0c0 2.687-0.27 5.047-0.81 7.08-0.547 2.033-1.327 3.737-2.34 5.11-1.007 1.38-2.23 2.413-3.67 3.1-1.44 0.693-3.063 1.04-4.87 1.04v0c-1.253 0-2.527-0.223-3.82-0.67-1.293-0.447-2.467-1.177-3.52-2.19-1.047-1.007-1.903-2.327-2.57-3.96-0.667-1.64-1-3.647-1-6.02v0c0-2.053 0.287-3.877 0.86-5.47 0.58-1.593 1.357-2.94 2.33-4.04 0.98-1.1 2.113-1.94 3.4-2.52 1.287-0.573 2.647-0.86 4.08-0.86v0c0.553 0 1.047 0.043 1.48 0.13 0.44 0.093 0.823 0.203 1.15 0.33 0.327 0.133 0.613 0.277 0.86 0.43 0.24 0.153 0.46 0.303 0.66 0.45zM140.41-21.29v19.09c0 0.213-0.037 0.47-0.11 0.77-0.073 0.3-0.247 0.587-0.52 0.86-0.267 0.267-0.653 0.493-1.16 0.68-0.5 0.187-1.183 0.28-2.05 0.28v0c-0.86 0-1.533-0.1-2.02-0.3-0.493-0.207-0.86-0.447-1.1-0.72-0.247-0.28-0.397-0.567-0.45-0.86-0.06-0.293-0.09-0.53-0.09-0.71v0-18.84c0-0.473-0.11-0.887-0.33-1.24-0.22-0.347-0.59-0.52-1.11-0.52v0c-0.28 0-0.517 0.047-0.71 0.14-0.193 0.1-0.403 0.24-0.63 0.42v0l-0.52-0.61c0.38-0.313 0.8-0.62 1.26-0.92 0.467-0.3 0.967-0.563 1.5-0.79 0.54-0.227 1.12-0.413 1.74-0.56 0.613-0.147 1.263-0.22 1.95-0.22v0c1.06 0 1.883 0.143 2.47 0.43 0.58 0.28 1.01 0.63 1.29 1.05 0.273 0.413 0.44 0.857 0.5 1.33 0.06 0.467 0.09 0.88 0.09 1.24zM132.15-30.91v0c0-0.453 0.103-0.887 0.31-1.3 0.2-0.42 0.483-0.783 0.85-1.09 0.367-0.307 0.79-0.55 1.27-0.73 0.48-0.18 1.007-0.27 1.58-0.27v0c0.553 0 1.07 0.09 1.55 0.27 0.48 0.18 0.897 0.423 1.25 0.73 0.36 0.307 0.643 0.67 0.85 1.09 0.2 0.413 0.3 0.847 0.3 1.3v0c0 0.473-0.1 0.913-0.3 1.32-0.207 0.407-0.49 0.76-0.85 1.06-0.353 0.3-0.77 0.54-1.25 0.72-0.48 0.18-0.997 0.27-1.55 0.27v0c-0.573 0-1.1-0.09-1.58-0.27-0.48-0.18-0.903-0.42-1.27-0.72-0.367-0.3-0.65-0.653-0.85-1.06-0.207-0.407-0.31-0.847-0.31-1.32zM154.39-23.39v0c-0.373 0-0.727 0.05-1.06 0.15-0.333 0.093-0.63 0.25-0.89 0.47-0.26 0.22-0.463 0.497-0.61 0.83-0.147 0.333-0.22 0.73-0.22 1.19v0c0 0.633 0.233 1.263 0.7 1.89 0.46 0.627 1.037 1.277 1.73 1.95 0.693 0.68 1.443 1.38 2.25 2.1 0.807 0.727 1.553 1.493 2.24 2.3 0.693 0.807 1.273 1.663 1.74 2.57 0.46 0.913 0.69 1.89 0.69 2.93v0c0 1.173-0.2 2.217-0.6 3.13-0.393 0.913-0.963 1.687-1.71 2.32-0.74 0.633-1.633 1.117-2.68 1.45-1.053 0.333-2.22 0.5-3.5 0.5v0c-1.127 0-2.147-0.16-3.06-0.48-0.907-0.313-1.717-0.703-2.43-1.17-0.707-0.46-1.31-0.95-1.81-1.47-0.507-0.527-0.9-1-1.18-1.42v0l0.86-0.61c0.213 0.247 0.48 0.51 0.8 0.79 0.327 0.287 0.69 0.553 1.09 0.8 0.4 0.24 0.827 0.437 1.28 0.59 0.46 0.16 0.923 0.24 1.39 0.24v0c1.173 0 2.133-0.283 2.88-0.85 0.753-0.56 1.13-1.393 1.13-2.5v0c0-0.62-0.203-1.257-0.61-1.91-0.407-0.66-0.92-1.34-1.54-2.04-0.62-0.7-1.287-1.427-2-2.18-0.72-0.747-1.387-1.52-2-2.32-0.62-0.793-1.133-1.613-1.54-2.46-0.407-0.847-0.61-1.727-0.61-2.64v0c0-1.027 0.207-1.92 0.62-2.68 0.413-0.767 0.967-1.403 1.66-1.91 0.693-0.5 1.483-0.877 2.37-1.13 0.887-0.253 1.8-0.38 2.74-0.38v0c1.093 0 2.087 0.097 2.98 0.29 0.9 0.193 1.67 0.49 2.31 0.89 0.64 0.4 1.137 0.9 1.49 1.5 0.347 0.607 0.52 1.307 0.52 2.1v0c0 0.62-0.203 1.157-0.61 1.61-0.407 0.46-0.973 0.69-1.7 0.69v0c-0.7 0-1.233-0.15-1.6-0.45-0.367-0.307-0.55-0.72-0.55-1.24v0c0-0.34 0.083-0.607 0.25-0.8 0.173-0.193 0.367-0.353 0.58-0.48 0.207-0.12 0.397-0.227 0.57-0.32 0.173-0.087 0.26-0.203 0.26-0.35v0c0-0.453-0.247-0.817-0.74-1.09-0.487-0.267-1.113-0.4-1.88-0.4zM163.94-12.5v0c0-2.133 0.31-4 0.93-5.6 0.62-1.607 1.447-2.947 2.48-4.02 1.033-1.073 2.233-1.88 3.6-2.42 1.367-0.533 2.797-0.8 4.29-0.8v0c1.5 0 2.933 0.247 4.3 0.74 1.367 0.5 2.567 1.263 3.6 2.29 1.033 1.02 1.86 2.317 2.48 3.89 0.62 1.573 0.93 3.433 0.93 5.58v0c0 2.133-0.31 4.02-0.93 5.66-0.62 1.647-1.447 3.03-2.48 4.15-1.033 1.127-2.233 1.977-3.6 2.55-1.367 0.58-2.8 0.87-4.3 0.87v0c-1.493 0-2.923-0.273-4.29-0.82-1.367-0.547-2.567-1.357-3.6-2.43-1.033-1.073-1.86-2.413-2.48-4.02-0.62-1.613-0.93-3.487-0.93-5.62zM178.96-12.74v0c0-1.307-0.047-2.567-0.14-3.78-0.087-1.207-0.26-2.283-0.52-3.23-0.26-0.947-0.637-1.7-1.13-2.26-0.487-0.56-1.13-0.84-1.93-0.84v0c-0.793 0-1.433 0.297-1.92 0.89-0.493 0.593-0.87 1.373-1.13 2.34-0.26 0.973-0.43 2.077-0.51 3.31-0.08 1.24-0.12 2.51-0.12 3.81v0c0 1.3 0.04 2.573 0.12 3.82 0.08 1.247 0.25 2.357 0.51 3.33 0.26 0.98 0.637 1.767 1.13 2.36 0.487 0.593 1.127 0.89 1.92 0.89v0c0.8 0 1.443-0.31 1.93-0.93 0.493-0.62 0.87-1.433 1.13-2.44 0.26-1.007 0.433-2.147 0.52-3.42 0.093-1.267 0.14-2.55 0.14-3.85z" fill="#1976d2" fill-rule="nonzero" stroke="none" stroke-width="1" stroke-linecap="butt" stroke-linejoin="miter" stroke-miterlimit="10" stroke-dasharray="" stroke-dashoffset="0" font-family="none" font-weight="none" font-size="none" text-anchor="none" style="mix-blend-mode: normal" data-fill-palette-color="primary" opacity="1"></path></g></svg></g></svg></g></svg></g></svg></g><g><svg viewBox="0 0 244.43135999999998 230.68872785036177" height="230.68872785036177" width="244.43135999999998"><g><svg xmlns="http://www.w3.org/2000/svg" xmlns:xlink="http://www.w3.org/1999/xlink" version="1.1" x="0" y="0" viewBox="18.18738 20 67.81262 64" enable-background="new 0 0 100 100" xml:space="preserve" height="230.68872785036177" width="244.43135999999998" class="icon-icon-0" data-fill-palette-color="accent" id="icon-0"><g fill="#1976d2" data-fill-palette-color="accent"><path fill="#1976d2" d="M54 20c-17.673 0-32 14.327-32 32 0 12.052 6.665 22.542 16.507 28H18.187v4H54c17.673 0 32-14.327 32-32C86 34.327 71.673 20 54 20zM47.163 69.939c-2.929 2.929-7.678 2.929-10.606 0s-2.929-7.678 0-10.607c2.929-2.929 7.678-2.929 10.606 0C50.092 62.261 50.092 67.01 47.163 69.939zM47.163 44.668c-2.929 2.929-7.678 2.929-10.606 0s-2.929-7.678 0-10.607c2.929-2.929 7.678-2.929 10.606 0C50.092 36.99 50.092 41.739 47.163 44.668zM54 55.962c-2.209 0-4-1.774-4-3.962s1.791-3.962 4-3.962S58 49.812 58 52 56.209 55.962 54 55.962zM72.434 69.939c-2.929 2.929-7.678 2.929-10.607 0s-2.929-7.678 0-10.607c2.929-2.929 7.678-2.929 10.607 0C75.363 62.261 75.363 67.01 72.434 69.939zM72.434 44.668c-2.929 2.929-7.678 2.929-10.607 0s-2.929-7.678 0-10.607c2.929-2.929 7.678-2.929 10.607 0C75.363 36.99 75.363 41.739 72.434 44.668z" data-fill-palette-color="accent"></path></g></svg></g></svg></g></svg></g><defs></defs></svg><rect width="395.52" height="137.98396984771807" fill="none" stroke="none" visibility="hidden"></rect></g></svg></g></svg>