<?xml version="1.0" encoding="UTF-8"?>
<svg version="1.1" viewBox="0 0 2000 1247" xmlns="http://www.w3.org/2000/svg">
<g transform="translate(-1.2121 .50486)">
<svg width="2e3" height="1247" data-background-color="#ffffff" viewBox="0 0 396 247" xmlns="http://www.w3.org/2000/svg" xmlns:xlink="http://www.w3.org/1999/xlink">
<g transform="translate(.24 -.1)">
<svg width="395.52" height="247.2" viewBox="0 0 395.52 247.2">
<svg/>
<svg width="395.52" height="247.2" viewBox="0 0 395.52 247.2">
<mask id="a">
<rect width="640" height="400" fill="#fff"/>
<g transform="translate(39.552 103.84)">
<svg width="316.42" height="39.519" viewBox="0 0 316.416 39.519180798426504">
<svg width="316.42" height="39.519" viewBox="0 0 316.416 39.519180798426504">
<svg width="316.42" height="39.519" viewBox="0 0 316.416 39.519180798426504">
<svg width="316.42" height="39.519" viewBox="0 0 316.416 39.519180798426504">
<svg width="316.42" height="39.519" viewBox="0 0 316.416 39.519180798426504">
<svg width="316.42" height="39.519" viewBox="0 0 316.416 39.519180798426504">
<g>
<svg width="316.42" height="39.519" data-palette-color="#1976d2" viewBox="-2.9299999999999997 -43.21 382.29 48.63">
<path class="wordmark-text-0" d="m25.49-27.1q-3.18-3.12-7.03-3.12-3.67 0-7.03 2.78-4.25 3.51-5.86 9.08-0.59 2-0.59 3.32t0.1 2.05q0 4.84 3.27 7.42 3.08 2.4 7.86 2.4 6.54-0.54 12.55-5.03 1.66-1.27 3.52-2.44 0.68 0 1.39 0.19 0.71 0.2 0.71 1.12-4.84 4.2-8.16 6.06-6.15 3.32-11.13 3.32-0.34 0-0.64 0-5.42 0-9.27-3.37-4.11-3.56-4.11-8.89 0-4 1.44-7.66 1.45-3.67 3.96-6.47 2.51-2.81 5.96-4.47 3.44-1.66 7.39-1.66 3.37 0 4.4 0.93 1.27 1.12 1.27 4.44zm12.54 4.15h3.08q0.64 9.13 1.08 21.14-0.3 1.52-2.35 1.52-0.54 0-1.1-0.22t-0.71-0.61v-21.83zm-1.46-6.64q0-1.71 2-1.71 1.32 0 2.15 0.59 0.15 0.53 0.15 1.05 0 0.51-0.39 1t-1.18 0.49q-0.78 0-1.56-0.37t-1.17-1.05zm26.71 21.88 0.05-2.98q0-5.81-0.64-8.55 0.39-0.73-1.17-0.73-1.66 0-4.3 0.83t-4.3 1.66q-3.95 1.9-4.39 3.71v13.28h-3.27q-0.64-1.66-0.64-9.32 0-6.84 0.27-10.06 0.27-3.23 0.42-3.67 1.27-0.83 2.05-0.83 1.22 0 1.22 2.89 0 1.12-0.12 2.17-0.13 1.05-0.13 1.44 7.92-5.81 12.26-5.81 4.93 0 5.62 7.96 0.29 2.78 0.29 7.71l-0.05 3.86q0 2.15 0.1 4.15-0.49 0.29-0.78 0.29-0.15-0.05-0.64-0.14-0.49-0.1-1.27-0.15-0.49-1.95-0.53-3.98-0.05-2.03-0.05-3.73zm15.96 4.29q4.3 0 12.94-3.9 0.54 0 0.88 0.36 0.34 0.37 0.34 0.86-1.95 3.32-7.47 5.17-5.52 1.86-10.3 0.64-5.42-1.42-6.59-6.11-0.1-0.92-0.1-2.49 0-1.56 0.8-4.12 0.81-2.57 2.76-4.86 1.96-2.3 4.59-3.61 2.64-1.32 5.62-1.32 2.83 0 6.35 1.95 1.66 0.93 2.63 2.1 0.98 1.17 0.98 2.39 0 0.34-0.05 0.69-0.1 2.97-2.88 3.76-1.22 0.34-2.83 0.34l-7.03-0.3q-3.52 0-5.38 1.52-1.07 0.83-1.51 2.49 1.22 4.44 6.25 4.44zm8.72-15.09q-1.1-0.78-2.27-1.12-1.18-0.34-1.96-0.34t-2.54 0.51q-1.75 0.51-3.12 1.15-3.37 1.56-3.37 3.27 3.91 0.34 5.86 0.34 5.42 0 7.32-0.93 1.18-0.48 1.18-1.22 0-0.87-1.1-1.66zm12.42 17.73q-2 0.83-2.66 0.83t-0.9-0.15q-0.25-0.14-0.54-0.68 0-1.61 0.12-4.05 0.12-2.45 0.22-5.23t0.1-5.61q0-2.84-0.29-5.18 0-1.56 2.1-1.56 0.48 0 0.75 1.76 0.27 1.75 0.39 2.73t0.22 1.42q1.27-2.3 5.03-3.62 2-0.63 3.76-0.63t3.1 0.41q1.34 0.42 2.3 1.52 0.95 1.1 0.95 2.9 1.27-2.39 5.71-4.29 4.05-1.81 7.28-1.81 4.64 0 4.54 3.51l1.02 18.17q0 0.24-1.41 0.34-2.74 0.2-2.74-0.49-0.05-0.97-0.05-1.95l0.25-7.86q0-5.52-1.08-8.74-3.22 0.24-4.95 1.05-1.73 0.8-3.05 2t-2.35 3.2q-2.29 4.49-2.29 11.91-0.29 1.03-1.91 1.03-1.07 0-1.75-0.37-0.69-0.37-0.54-0.66 0.93-5.17 0.93-8.06 0-2.29-0.47-4.37-0.46-2.07-1.14-4.76-7.04 0-9.48 5.62-1.07 2.49-1.19 4.66-0.13 2.17-0.13 3.71t0.15 3.3zm54.05-7.33q-3.66 5.77-9.76 7.13-1.42 0.3-2.57 0.3t-1.9-0.03q-0.76-0.02-1.69-0.22-0.92-0.19-1.71-0.63-1.8-1.03-1.8-2.88-0.2-0.88-0.2-1.98t0.49-2.91q0.49-1.8 1.78-3.9 1.3-2.1 3.15-3.86 3.86-3.71 8.35-4.79 1.32-0.29 2.42-0.29t1.98 0.15q2.83 0 3.8 3.86 0.64 2.44 0.76 6.81t0.25 6.74q0.12 2.36 0.61 4.32h-2.88q-0.2-1.32-0.3-2.35-0.1-1.02-0.19-1.9-0.25-2.05-0.59-3.57zm-0.19-7.56q0-2.84-2.79-2.84-0.34-0.04-0.68-0.04-3.57 0-7.52 3.41-1.86 1.57-3.17 3.52-1.96 2.78-1.96 4.98 0 2.88 3.32 3.42 4.4-0.1 8.4-4.01 1.71-1.71 2.83-3.71 1.57-2.68 1.57-4.73zm29.19 15.77-2.2-0.1v-11.38q0.25-3.66 0.39-6.49 0.15-2.83 0.54-4.88t1.27-3.45q0.88-1.39 2.64-2.22 3.17-1.56 11.67-1.56 3.66 0 6.2 0.71t3.76 1.34q2.78 1.37 2.78 3.81t-1.39 4.42-3.61 3.42q-2.23 1.44-5.01 2.36-2.78 0.93-5.57 1.52-4.98 0.97-9.57 0.97l-0.19 10.94q0 0.59-1.71 0.59zm1.86-17.04q0 2.44 2.09 2.44 0.3 0 1.03-0.03 0.73-0.02 2.56-0.14t3.89-0.49q2.05-0.37 4.12-0.95 2.08-0.59 3.74-1.47 3.76-2.05 3.76-5.22-0.74-3.18-5.81-4.06-1.52-0.29-2.71-0.29-1.2 0-2.84 0.12-1.63 0.13-3.78 0.76-2.15 0.64-3.61 1.71-1.47 1.07-1.61 2.49-0.05 0.59-0.25 1.37-0.58 2.49-0.58 3.76zm46.48 8.83q-3.66 5.77-9.77 7.13-1.41 0.3-2.56 0.3t-1.91-0.03q-0.75-0.02-1.68-0.22-0.93-0.19-1.71-0.63-1.81-1.03-1.81-2.88-0.19-0.88-0.19-1.98t0.49-2.91q0.48-1.8 1.78-3.9 1.29-2.1 3.15-3.86 3.86-3.71 8.35-4.79 1.32-0.29 2.41-0.29 1.1 0 1.98 0.15 2.83 0 3.81 3.86 0.64 2.44 0.76 6.81t0.24 6.74q0.12 2.36 0.61 4.32h-2.88q-0.19-1.32-0.29-2.35-0.1-1.02-0.2-1.9-0.24-2.05-0.58-3.57zm-0.2-7.56q0-2.84-2.78-2.84-0.34-0.04-0.68-0.04-3.57 0-7.52 3.41-1.86 1.57-3.18 3.52-1.95 2.78-1.95 4.98 0 2.88 3.32 3.42 4.39-0.1 8.4-4.01 1.71-1.71 2.83-3.71 1.56-2.68 1.56-4.73zm30.42-2.15q-2.05-1.47-5.27-1.47-3.03 0-5.62 1.13-4.88 2.05-6.69 5.27-0.78 1.46-0.78 3.12 0 0.3 0 1.64t0.49 3.61 0.49 4.62q-1.03 0.05-1.66 0.24-0.64 0.2-1.08 0.2t-0.75-0.39q-0.32-0.39-0.71-1.52-0.05-0.29-0.2-1.66-0.14-1.36-0.36-3.32-0.22-1.95-0.49-4.27t-0.52-4.57q-0.53-4.88-0.83-7.17 0-1.18 1.71-1.18 1.03 0 1.61 0.86 0.59 0.85 0.93 1.95t0.47 2.18q0.12 1.07 0.22 1.51 6.44-5.76 16.01-5.76 1.08 0 2.25 0.05 0.29-0.05 0.73-0.05t0.88 0.58q0.54 0.69 0.54 1.66 0 2.44-1.37 2.74zm22.8 9.71q-3.66 5.77-9.77 7.13-1.41 0.3-2.56 0.3t-1.9-0.03q-0.76-0.02-1.69-0.22-0.93-0.19-1.71-0.63-1.8-1.03-1.8-2.88-0.2-0.88-0.2-1.98t0.49-2.91q0.49-1.8 1.78-3.9 1.3-2.1 3.15-3.86 3.86-3.71 8.35-4.79 1.32-0.29 2.42-0.29t1.97 0.15q2.84 0 3.81 3.86 0.64 2.44 0.76 6.81t0.24 6.74q0.13 2.36 0.61 4.32h-2.88q-0.19-1.32-0.29-2.35-0.1-1.02-0.19-1.9-0.25-2.05-0.59-3.57zm-0.2-7.56q0-2.84-2.78-2.84-0.34-0.04-0.68-0.04-3.57 0-7.52 3.41-1.86 1.57-3.18 3.52-1.95 2.78-1.95 4.98 0 2.88 3.32 3.42 4.4-0.1 8.4-4.01 1.71-1.71 2.83-3.71 1.56-2.68 1.56-4.73zm29.54-23.54q0 4.69-0.27 9.16-0.26 4.46-0.48 8.74-0.22 4.27-0.22 9.08t0.68 10.18q0 1.12-0.42 1.61-0.41 0.49-1.39 0.49-2.29 0-2.29-3.81v-1.61q-6.94 5.17-11.72 5.17-1.9 0-3.88-0.92-1.98-0.93-3.74-3.76-0.24-1.17-0.24-2.4 0-1.22 0.46-2.95 0.47-1.73 1.91-3.59 1.44-1.85 3.49-3.27 4.49-3.03 9.71-3.03 2.25 0 4.3 0.69 0-0.88 0.12-3.08 0.13-2.2 0.27-4.64 0.29-6.35 0.39-7.49 0.1-1.15 0.27-1.96 0.17-0.8 0.51-1.39 0.74-1.22 2.54-1.22zm-20.41 31.54q0 3.86 2.79 3.86 0.44 0 0.97-0.1 2 0 4.93-1.17 5.57-2.2 6.79-3.81v-6.49q0-1.71-2.78-1.71-0.34-0.05-0.91-0.05-0.56 0-1.73 0.25-1.17 0.24-2.64 0.87-1.46 0.64-2.88 1.57-2.97 2-4.1 4.68-0.44 1.03-0.44 2.1zm24.27-15.28h3.07q0.64 9.13 1.08 21.14-0.29 1.52-2.35 1.52-0.53 0-1.09-0.22-0.57-0.22-0.71-0.61v-21.83zm-1.47-6.64q0-1.71 2-1.71 1.32 0 2.15 0.59 0.15 0.53 0.15 1.05 0 0.51-0.39 1t-1.17 0.49-1.57-0.37q-0.78-0.37-1.17-1.05zm24.41 16.99q5.38 0 5.38 2.74 0 2.05-2.98 4.78-4.45 4.05-11.97 6.5-0.34 0-0.75-0.69-0.42-0.68-0.64-1.05-0.22-0.36-0.31-0.46 5.61-1.86 9.22-4.49 2.44-1.76 2.44-2.88 0-1.13-2.88-1.13t-8.44 1.37q-2.54-0.1-4.4-1.81-1.61-1.51-1.61-3.05t0.88-2.83 2.34-2.42q1.47-1.12 3.42-2.05 4.79-2.29 9.91-2.29 1.52 0 2.93 0.29 1.18 0 1.37 1.03 0.2 1.02 0.2 3.36-2.88-1.31-6.5-1.31-4.49 0-7.42 1.8-3.03 1.76-3.13 4.59 0 1.37 2.01 1.37l3.56-0.39q4.59-0.98 7.37-0.98zm9.62 3.32q0-5.76 4.98-9.27 3.96-2.79 9.52-3.37 0.3 0 1.37 0t2.88 0.63q4 1.37 5.47 4.83 0.59 1.37 0.59 2.32 0 0.96-0.05 1.35 0 6.1-4.64 9.62-4.3 3.22-10.74 3.22-4.64 0-7.01-2.15t-2.37-7.18zm3.37 1.17q0 3.03 1.61 4.11 1.22 0.78 4.1 0.78t5.08-0.44 3.91-1.52q3.66-2.34 3.66-7.27 0-2.93-1.56-4.79-1.71-2-4.5-2-1.9 0.34-3.83 0.73t-3.64 1.52q-3.71 2.39-4.83 8.88z" stroke="#000" stroke-linejoin="round" stroke-width="7"/>
</svg>
</g>
</svg>
</svg>
</svg>
</svg>
</svg>
</svg>
</g>
</mask>
<g transform="translate(39.552 103.84)">
<svg width="316.42" height="39.519" viewBox="0 0 316.416 39.519180798426504">
<svg width="316.42" height="39.519" viewBox="0 0 316.416 39.519180798426504">
<svg width="316.42" height="39.519" viewBox="0 0 316.416 39.519180798426504">
<svg width="316.42" height="39.519" viewBox="0 0 316.416 39.519180798426504">
<svg width="316.42" height="39.519" viewBox="0 0 316.416 39.519180798426504">
<svg width="316.42" height="39.519" viewBox="0 0 316.416 39.519180798426504">
<g>
<svg width="316.42" height="39.519" data-palette-color="#1976d2" viewBox="-2.9299999999999997 -43.21 382.29 48.63">
<path class="wordmark-text-0" d="m25.49-27.1q-3.18-3.12-7.03-3.12-3.67 0-7.03 2.78-4.25 3.51-5.86 9.08-0.59 2-0.59 3.32t0.1 2.05q0 4.84 3.27 7.42 3.08 2.4 7.86 2.4 6.54-0.54 12.55-5.03 1.66-1.27 3.52-2.44 0.68 0 1.39 0.19 0.71 0.2 0.71 1.12-4.84 4.2-8.16 6.06-6.15 3.32-11.13 3.32-0.34 0-0.64 0-5.42 0-9.27-3.37-4.11-3.56-4.11-8.89 0-4 1.44-7.66 1.45-3.67 3.96-6.47 2.51-2.81 5.96-4.47 3.44-1.66 7.39-1.66 3.37 0 4.4 0.93 1.27 1.12 1.27 4.44zm12.54 4.15h3.08q0.64 9.13 1.08 21.14-0.3 1.52-2.35 1.52-0.54 0-1.1-0.22t-0.71-0.61v-21.83zm-1.46-6.64q0-1.71 2-1.71 1.32 0 2.15 0.59 0.15 0.53 0.15 1.05 0 0.51-0.39 1t-1.18 0.49q-0.78 0-1.56-0.37t-1.17-1.05zm26.71 21.88 0.05-2.98q0-5.81-0.64-8.55 0.39-0.73-1.17-0.73-1.66 0-4.3 0.83t-4.3 1.66q-3.95 1.9-4.39 3.71v13.28h-3.27q-0.64-1.66-0.64-9.32 0-6.84 0.27-10.06 0.27-3.23 0.42-3.67 1.27-0.83 2.05-0.83 1.22 0 1.22 2.89 0 1.12-0.12 2.17-0.13 1.05-0.13 1.44 7.92-5.81 12.26-5.81 4.93 0 5.62 7.96 0.29 2.78 0.29 7.71l-0.05 3.86q0 2.15 0.1 4.15-0.49 0.29-0.78 0.29-0.15-0.05-0.64-0.14-0.49-0.1-1.27-0.15-0.49-1.95-0.53-3.98-0.05-2.03-0.05-3.73zm15.96 4.29q4.3 0 12.94-3.9 0.54 0 0.88 0.36 0.34 0.37 0.34 0.86-1.95 3.32-7.47 5.17-5.52 1.86-10.3 0.64-5.42-1.42-6.59-6.11-0.1-0.92-0.1-2.49 0-1.56 0.8-4.12 0.81-2.57 2.76-4.86 1.96-2.3 4.59-3.61 2.64-1.32 5.62-1.32 2.83 0 6.35 1.95 1.66 0.93 2.63 2.1 0.98 1.17 0.98 2.39 0 0.34-0.05 0.69-0.1 2.97-2.88 3.76-1.22 0.34-2.83 0.34l-7.03-0.3q-3.52 0-5.38 1.52-1.07 0.83-1.51 2.49 1.22 4.44 6.25 4.44zm8.72-15.09q-1.1-0.78-2.27-1.12-1.18-0.34-1.96-0.34t-2.54 0.51q-1.75 0.51-3.12 1.15-3.37 1.56-3.37 3.27 3.91 0.34 5.86 0.34 5.42 0 7.32-0.93 1.18-0.48 1.18-1.22 0-0.87-1.1-1.66zm12.42 17.73q-2 0.83-2.66 0.83t-0.9-0.15q-0.25-0.14-0.54-0.68 0-1.61 0.12-4.05 0.12-2.45 0.22-5.23t0.1-5.61q0-2.84-0.29-5.18 0-1.56 2.1-1.56 0.48 0 0.75 1.76 0.27 1.75 0.39 2.73t0.22 1.42q1.27-2.3 5.03-3.62 2-0.63 3.76-0.63t3.1 0.41q1.34 0.42 2.3 1.52 0.95 1.1 0.95 2.9 1.27-2.39 5.71-4.29 4.05-1.81 7.28-1.81 4.64 0 4.54 3.51l1.02 18.17q0 0.24-1.41 0.34-2.74 0.2-2.74-0.49-0.05-0.97-0.05-1.95l0.25-7.86q0-5.52-1.08-8.74-3.22 0.24-4.95 1.05-1.73 0.8-3.05 2t-2.35 3.2q-2.29 4.49-2.29 11.91-0.29 1.03-1.91 1.03-1.07 0-1.75-0.37-0.69-0.37-0.54-0.66 0.93-5.17 0.93-8.06 0-2.29-0.47-4.37-0.46-2.07-1.14-4.76-7.04 0-9.48 5.62-1.07 2.49-1.19 4.66-0.13 2.17-0.13 3.71t0.15 3.3zm54.05-7.33q-3.66 5.77-9.76 7.13-1.42 0.3-2.57 0.3t-1.9-0.03q-0.76-0.02-1.69-0.22-0.92-0.19-1.71-0.63-1.8-1.03-1.8-2.88-0.2-0.88-0.2-1.98t0.49-2.91q0.49-1.8 1.78-3.9 1.3-2.1 3.15-3.86 3.86-3.71 8.35-4.79 1.32-0.29 2.42-0.29t1.98 0.15q2.83 0 3.8 3.86 0.64 2.44 0.76 6.81t0.25 6.74q0.12 2.36 0.61 4.32h-2.88q-0.2-1.32-0.3-2.35-0.1-1.02-0.19-1.9-0.25-2.05-0.59-3.57zm-0.19-7.56q0-2.84-2.79-2.84-0.34-0.04-0.68-0.04-3.57 0-7.52 3.41-1.86 1.57-3.17 3.52-1.96 2.78-1.96 4.98 0 2.88 3.32 3.42 4.4-0.1 8.4-4.01 1.71-1.71 2.83-3.71 1.57-2.68 1.57-4.73zm29.19 15.77-2.2-0.1v-11.38q0.25-3.66 0.39-6.49 0.15-2.83 0.54-4.88t1.27-3.45q0.88-1.39 2.64-2.22 3.17-1.56 11.67-1.56 3.66 0 6.2 0.71t3.76 1.34q2.78 1.37 2.78 3.81t-1.39 4.42-3.61 3.42q-2.23 1.44-5.01 2.36-2.78 0.93-5.57 1.52-4.98 0.97-9.57 0.97l-0.19 10.94q0 0.59-1.71 0.59zm1.86-17.04q0 2.44 2.09 2.44 0.3 0 1.03-0.03 0.73-0.02 2.56-0.14t3.89-0.49q2.05-0.37 4.12-0.95 2.08-0.59 3.74-1.47 3.76-2.05 3.76-5.22-0.74-3.18-5.81-4.06-1.52-0.29-2.71-0.29-1.2 0-2.84 0.12-1.63 0.13-3.78 0.76-2.15 0.64-3.61 1.71-1.47 1.07-1.61 2.49-0.05 0.59-0.25 1.37-0.58 2.49-0.58 3.76zm46.48 8.83q-3.66 5.77-9.77 7.13-1.41 0.3-2.56 0.3t-1.91-0.03q-0.75-0.02-1.68-0.22-0.93-0.19-1.71-0.63-1.81-1.03-1.81-2.88-0.19-0.88-0.19-1.98t0.49-2.91q0.48-1.8 1.78-3.9 1.29-2.1 3.15-3.86 3.86-3.71 8.35-4.79 1.32-0.29 2.41-0.29 1.1 0 1.98 0.15 2.83 0 3.81 3.86 0.64 2.44 0.76 6.81t0.24 6.74q0.12 2.36 0.61 4.32h-2.88q-0.19-1.32-0.29-2.35-0.1-1.02-0.2-1.9-0.24-2.05-0.58-3.57zm-0.2-7.56q0-2.84-2.78-2.84-0.34-0.04-0.68-0.04-3.57 0-7.52 3.41-1.86 1.57-3.18 3.52-1.95 2.78-1.95 4.98 0 2.88 3.32 3.42 4.39-0.1 8.4-4.01 1.71-1.71 2.83-3.71 1.56-2.68 1.56-4.73zm30.42-2.15q-2.05-1.47-5.27-1.47-3.03 0-5.62 1.13-4.88 2.05-6.69 5.27-0.78 1.46-0.78 3.12 0 0.3 0 1.64t0.49 3.61 0.49 4.62q-1.03 0.05-1.66 0.24-0.64 0.2-1.08 0.2t-0.75-0.39q-0.32-0.39-0.71-1.52-0.05-0.29-0.2-1.66-0.14-1.36-0.36-3.32-0.22-1.95-0.49-4.27t-0.52-4.57q-0.53-4.88-0.83-7.17 0-1.18 1.71-1.18 1.03 0 1.61 0.86 0.59 0.85 0.93 1.95t0.47 2.18q0.12 1.07 0.22 1.51 6.44-5.76 16.01-5.76 1.08 0 2.25 0.05 0.29-0.05 0.73-0.05t0.88 0.58q0.54 0.69 0.54 1.66 0 2.44-1.37 2.74zm22.8 9.71q-3.66 5.77-9.77 7.13-1.41 0.3-2.56 0.3t-1.9-0.03q-0.76-0.02-1.69-0.22-0.93-0.19-1.71-0.63-1.8-1.03-1.8-2.88-0.2-0.88-0.2-1.98t0.49-2.91q0.49-1.8 1.78-3.9 1.3-2.1 3.15-3.86 3.86-3.71 8.35-4.79 1.32-0.29 2.42-0.29t1.97 0.15q2.84 0 3.81 3.86 0.64 2.44 0.76 6.81t0.24 6.74q0.13 2.36 0.61 4.32h-2.88q-0.19-1.32-0.29-2.35-0.1-1.02-0.19-1.9-0.25-2.05-0.59-3.57zm-0.2-7.56q0-2.84-2.78-2.84-0.34-0.04-0.68-0.04-3.57 0-7.52 3.41-1.86 1.57-3.18 3.52-1.95 2.78-1.95 4.98 0 2.88 3.32 3.42 4.4-0.1 8.4-4.01 1.71-1.71 2.83-3.71 1.56-2.68 1.56-4.73zm29.54-23.54q0 4.69-0.27 9.16-0.26 4.46-0.48 8.74-0.22 4.27-0.22 9.08t0.68 10.18q0 1.12-0.42 1.61-0.41 0.49-1.39 0.49-2.29 0-2.29-3.81v-1.61q-6.94 5.17-11.72 5.17-1.9 0-3.88-0.92-1.98-0.93-3.74-3.76-0.24-1.17-0.24-2.4 0-1.22 0.46-2.95 0.47-1.73 1.91-3.59 1.44-1.85 3.49-3.27 4.49-3.03 9.71-3.03 2.25 0 4.3 0.69 0-0.88 0.12-3.08 0.13-2.2 0.27-4.64 0.29-6.35 0.39-7.49 0.1-1.15 0.27-1.96 0.17-0.8 0.51-1.39 0.74-1.22 2.54-1.22zm-20.41 31.54q0 3.86 2.79 3.86 0.44 0 0.97-0.1 2 0 4.93-1.17 5.57-2.2 6.79-3.81v-6.49q0-1.71-2.78-1.71-0.34-0.05-0.91-0.05-0.56 0-1.73 0.25-1.17 0.24-2.64 0.87-1.46 0.64-2.88 1.57-2.97 2-4.1 4.68-0.44 1.03-0.44 2.1zm24.27-15.28h3.07q0.64 9.13 1.08 21.14-0.29 1.52-2.35 1.52-0.53 0-1.09-0.22-0.57-0.22-0.71-0.61v-21.83zm-1.47-6.64q0-1.71 2-1.71 1.32 0 2.15 0.59 0.15 0.53 0.15 1.05 0 0.51-0.39 1t-1.17 0.49-1.57-0.37q-0.78-0.37-1.17-1.05zm24.41 16.99q5.38 0 5.38 2.74 0 2.05-2.98 4.78-4.45 4.05-11.97 6.5-0.34 0-0.75-0.69-0.42-0.68-0.64-1.05-0.22-0.36-0.31-0.46 5.61-1.86 9.22-4.49 2.44-1.76 2.44-2.88 0-1.13-2.88-1.13t-8.44 1.37q-2.54-0.1-4.4-1.81-1.61-1.51-1.61-3.05t0.88-2.83 2.34-2.42q1.47-1.12 3.42-2.05 4.79-2.29 9.91-2.29 1.52 0 2.93 0.29 1.18 0 1.37 1.03 0.2 1.02 0.2 3.36-2.88-1.31-6.5-1.31-4.49 0-7.42 1.8-3.03 1.76-3.13 4.59 0 1.37 2.01 1.37l3.56-0.39q4.59-0.98 7.37-0.98zm9.62 3.32q0-5.76 4.98-9.27 3.96-2.79 9.52-3.37 0.3 0 1.37 0t2.88 0.63q4 1.37 5.47 4.83 0.59 1.37 0.59 2.32 0 0.96-0.05 1.35 0 6.1-4.64 9.62-4.3 3.22-10.74 3.22-4.64 0-7.01-2.15t-2.37-7.18zm3.37 1.17q0 3.03 1.61 4.11 1.22 0.78 4.1 0.78t5.08-0.44 3.91-1.52q3.66-2.34 3.66-7.27 0-2.93-1.56-4.79-1.71-2-4.5-2-1.9 0.34-3.83 0.73t-3.64 1.52q-3.71 2.39-4.83 8.88z" fill="#1976d2" data-fill-palette-color="primary"/>
</svg>
</g>
</svg>
</svg>
</svg>
</svg>
</svg>
</svg>
</g>
<g mask="url(#a)">
<g transform="matrix(3.8312 0 0 3.8312 67.856 1)">
<svg class="icon-none" width="67.813" height="64" enable-background="new 0 0 100 100" data-fill-palette-color="accent" version="1.1" viewBox="18.18738 20 67.81262 64" xml:space="preserve" xmlns="http://www.w3.org/2000/svg" xmlns:xlink="http://www.w3.org/1999/xlink"><g fill="#1976d2" data-fill-palette-color="accent"><path d="m54 20c-17.673 0-32 14.327-32 32 0 12.052 6.665 22.542 16.507 28h-20.32v4h35.813c17.673 0 32-14.327 32-32s-14.327-32-32-32zm-6.837 49.939c-2.929 2.929-7.678 2.929-10.606 0s-2.929-7.678 0-10.607 7.678-2.929 10.606 0c2.929 2.929 2.929 7.678 0 10.607zm0-25.271c-2.929 2.929-7.678 2.929-10.606 0s-2.929-7.678 0-10.607 7.678-2.929 10.606 0c2.929 2.929 2.929 7.678 0 10.607zm6.837 11.294c-2.209 0-4-1.774-4-3.962s1.791-3.962 4-3.962 4 1.774 4 3.962-1.791 3.962-4 3.962zm18.434 13.977c-2.929 2.929-7.678 2.929-10.607 0s-2.929-7.678 0-10.607 7.678-2.929 10.607 0 2.929 7.678 0 10.607zm0-25.271c-2.929 2.929-7.678 2.929-10.607 0s-2.929-7.678 0-10.607 7.678-2.929 10.607 0 2.929 7.678 0 10.607z" fill="#1976d2" data-fill-palette-color="accent"/></g></svg>
</g>
</g>
</svg>
</svg>
<rect width="395.52" height="247.2" fill="none" visibility="hidden"/>
</g>
</svg>
</g>
</svg>
