<svg xmlns="http://www.w3.org/2000/svg" version="1.1" xmlns:xlink="http://www.w3.org/1999/xlink" xmlns:svgjs="http://svgjs.dev/svgjs" width="2000" height="1500" viewBox="0 0 2000 1500"><rect width="2000" height="1500" fill="#ffffff"></rect><g transform="matrix(0.75,0,0,0.75,249.090909090909,642.9724464770613)"><svg viewBox="0 0 396 57" data-background-color="#ffffff" preserveAspectRatio="xMidYMid meet" height="287" width="2000" xmlns="http://www.w3.org/2000/svg" xmlns:xlink="http://www.w3.org/1999/xlink"><g id="tight-bounds" transform="matrix(1,0,0,1,0.2400000000000091,-0.15820882319394514)"><svg viewBox="0 0 395.52 57.31641764638789" height="57.31641764638789" width="395.52"><g><svg viewBox="0 0 427.214364791104 61.90937741935484" height="57.31641764638789" width="395.52"><g><svg viewBox="0 0 427.214364791104 61.90937741935484" height="61.90937741935484" width="427.214364791104"><g id="textblocktransform"><svg viewBox="0 0 427.214364791104 61.90937741935484" height="61.90937741935484" width="427.214364791104" id="textblock"><g><svg viewBox="0 0 427.214364791104 61.90937741935484" height="61.90937741935484" width="427.214364791104"><g><svg><g></g><g></g></svg></g><g><svg><g><svg></svg></g><g></g></svg></g><g id="text-0"><svg viewBox="0 0 427.214364791104 61.90937741935484" height="61.90937741935484" width="427.214364791104"><g transform="matrix(1,0,0,1,0,12.179688709677418)"><svg width="150.70000000000002" viewBox="1.85 -36.45 150.69 37.550000000000004" height="37.550000000000004" data-palette-color="#ed1703"><path d="M14.65 0.6Q11.4 0.6 8.43-1.83 5.45-4.25 3.65-8.45 1.85-12.65 1.85-17.7L1.85-17.7Q1.85-22.7 3.58-26.7 5.3-30.7 8-32.95 10.7-35.2 13.55-35.2L13.55-35.2Q17.1-35.2 19.28-33.73 21.45-32.25 22.4-30.9L22.4-30.9Q22.6-30.6 22.78-30.35 22.95-30.1 22.95-29.85L22.95-29.85Q22.95-29.55 22.4-29.05L22.4-29.05Q20.1-27.25 19.1-25.9L19.1-25.9Q18.6-25.25 18.25-24.93 17.9-24.6 17.55-24.6L17.55-24.6Q17.2-24.6 16.75-25.1L16.75-25.1Q15.7-26.25 15.13-26.73 14.55-27.2 13.75-27.2L13.75-27.2Q12.5-27.2 11.28-26.15 10.05-25.1 9.2-22.68 8.35-20.25 8.35-16.45L8.35-16.45Q8.35-12.75 9.43-10.58 10.5-8.4 11.88-7.55 13.25-6.7 14.25-6.7L14.25-6.7Q15.15-6.7 16.1-7.33 17.05-7.95 17.75-8.65L17.75-8.65Q17.85-8.75 18.07-9 18.3-9.25 18.5-9.25L18.5-9.25Q18.75-9.25 19.1-9.05L19.1-9.05 23.35-6.7Q23.55-6.6 23.98-6.43 24.4-6.25 24.58-6.1 24.75-5.95 24.75-5.7L24.75-5.7Q24.75-5.45 24.6-5.15L24.6-5.15Q23.5-3.3 21.15-1.35 18.8 0.6 14.65 0.6L14.65 0.6ZM29.15 0.4Q28.75 0.4 28.65 0.33 28.55 0.25 28.55 0L28.55 0Q28.55-0.15 28.57-0.48 28.6-0.8 28.6-1.35L28.6-1.35 28.65-6.8 28.75-15.5Q28.75-16.9 28.95-21.5L28.95-21.5Q29.15-26.65 29.1-27.15L29.1-27.15 29.05-28Q29.05-28.55 29.2-28.83 29.35-29.1 29.75-29.1L29.75-29.1 31.85-29.05Q32.3-29.05 32.3-28.5L32.3-28.5Q32.3-28.25 32.25-28 32.2-27.75 32.2-27.5L32.2-27.5Q32.1-26.45 32-22.9L32-22.9Q32-21.75 31.8-17.05L31.8-17.05Q31.75-15.5 31.7-14.03 31.65-12.55 31.65-11.45L31.65-11.45Q31.65-9.05 31.72-5.38 31.8-1.7 31.9-1L31.9-1Q31.95-0.8 31.95-0.45L31.95-0.45Q31.95-0.1 31.87 0.03 31.8 0.15 31.5 0.2L31.5 0.2Q31.1 0.4 30.22 0.4 29.35 0.4 29.15 0.4L29.15 0.4ZM30.8-30.95Q29.75-30.95 28.87-31.75 28-32.55 28-33.75L28-33.75Q28-34.8 28.77-35.63 29.55-36.45 30.6-36.45L30.6-36.45Q31.85-36.45 32.85-35.8 33.85-35.15 33.85-34L33.85-34Q33.85-32.6 32.85-31.78 31.85-30.95 30.8-30.95L30.8-30.95ZM40.25 0Q39.95 0 39.82-0.15 39.7-0.3 39.7-0.65L39.7-0.65 39.65-3.45Q39.4-13.2 39.45-14.7L39.45-14.7 39.45-29.2Q39.45-29.9 40.1-29.9L40.1-29.9 41-29.9 42.1-29.85Q42.5-29.85 42.5-29L42.5-29 42.45-27.2 43.95-27.95Q45.9-28.9 47.42-29.38 48.95-29.85 51.3-29.85L51.3-29.85Q53.6-29.85 55.12-29.13 56.65-28.4 57.95-26.6L57.95-26.6Q59.35-24.9 59.35-19.2L59.35-19.2 59.4-10.5 59.35-7.5Q59.25-4.3 59.25-2.8L59.25-2.8Q59.25-1.5 59.3-1.25L59.3-1.25Q59.4-0.75 59.4-0.7L59.4-0.7Q59.4-0.4 59.27-0.28 59.15-0.15 58.85-0.1L58.85-0.1Q58.45 0 57.57 0 56.7 0 56.5 0L56.5 0Q56.15 0 56.05-0.2 55.95-0.4 55.95-1.15L55.95-1.15 56.15-9.45 56.25-14.1 56.3-17.6Q56.3-22.2 55.65-23.6L55.65-23.6Q55-24.9 54.47-25.53 53.95-26.15 53.07-26.43 52.2-26.7 50.55-26.7L50.55-26.7Q48.55-26.7 46.37-25.85 44.2-25 42.8-23.95L42.8-23.95Q42.8-20 42.85-17.05L42.85-17.05 42.85-10.15Q42.95-7.65 43-4.85 43.05-2.05 43.05-0.8L43.05-0.8Q43.05-0.4 42.82-0.2 42.6 0 41.95 0L41.95 0 40.25 0ZM76.64 1.1Q69.14 1.1 66.64-3.98 64.14-9.05 64.14-14.85L64.14-14.85Q64.14-20.45 65.84-23.83 67.54-27.2 69.97-28.55 72.39-29.9 74.84-29.9L74.84-29.9Q79.44-29.9 81.77-27.25 84.09-24.6 84.77-21.08 85.44-17.55 85.44-13.45L85.44-13.45Q85.44-13.1 84.94-13L84.94-13Q83.29-13 77.34-12.45L77.34-12.45Q76.39-12.35 75.04-12.23 73.69-12.1 72.04-12L72.04-12Q72.49-7.15 77.29-7.15L77.29-7.15Q78.89-7.15 79.77-7.45 80.64-7.75 82.59-8.7L82.59-8.7Q82.94-8.7 83.22-8.3 83.49-7.9 83.99-6.65L83.99-6.65Q84.14-6.4 84.37-5.7 84.59-5 84.79-4.65L84.79-4.65Q85.74-2.25 85.69-2.15L85.69-2.15Q85.59-1.95 85.14-1.6L85.14-1.6Q84.09-0.55 81.77 0.28 79.44 1.1 76.64 1.1L76.64 1.1ZM72.04-14.9L77.84-15.4Q77.44-21.1 75.09-21.1L75.09-21.1Q73.69-21.1 72.94-19.48 72.19-17.85 72.04-14.9L72.04-14.9ZM90.64 0Q90.39 0 90.27-0.15 90.14-0.3 90.14-0.7L90.14-0.7 90.14-10.45 90.14-14.7 90.14-29.2Q90.14-29.6 90.24-29.75 90.34-29.9 90.74-29.9L90.74-29.9 91.69-29.95 92.79-29.9Q93.19-29.9 93.19-29L93.19-29 93.14-27.6Q95.64-28.75 97.52-29.33 99.39-29.9 101.99-29.9L101.99-29.9Q104.34-29.9 106.12-29.18 107.89-28.45 108.92-27.63 109.94-26.8 110.04-26.55L110.04-26.55Q111.09-27.4 112.02-28.03 112.94-28.65 114.74-29.28 116.54-29.9 118.84-29.9L118.84-29.9Q121.14-29.9 122.77-29.18 124.39-28.45 125.64-26.65L125.64-26.65Q126.54-25.55 127.02-23.15 127.49-20.75 127.49-19.2L127.49-19.2Q127.49-18.35 127.54-17.75L127.54-17.75 127.59-14.1Q127.59-11.75 127.49-10.55L127.49-10.55Q127.39-7.75 127.39-3.05L127.39-3.05 127.39-1.3 127.44-0.55Q127.44-0.05 127.14 0L127.14 0 125.59-0.05Q124.89-0.05 124.64 0L124.64 0 124.49 0Q124.24 0 124.17-0.23 124.09-0.45 124.09-1.15L124.09-1.15Q124.09-2.25 124.04-3.3L124.04-3.3Q123.94-7 123.94-10.15L123.94-10.15Q123.94-12.05 124.04-13.65L124.04-13.65 124.09-15.55Q124.09-17.85 123.87-20.18 123.64-22.5 123.19-23.6L123.19-23.6Q122.34-25.4 121.34-26.05 120.34-26.7 118.29-26.7L118.29-26.7Q114.94-26.7 113.19-25.45 111.44-24.2 111.19-22.4L111.19-22.4 111.19-12.1Q111.29-10.7 111.29-7.35L111.29-7.35Q111.29-6 111.24-5.75L111.24-5.75 111.19-4.85Q111.19-2.85 111.34-0.9L111.34-0.9Q111.34-0.3 110.99-0.13 110.64 0.05 110.09 0L110.09 0 109.14 0 108.94 0 108.34 0 107.39 0Q106.84 0 106.69-0.43 106.54-0.85 106.52-1.28 106.49-1.7 106.49-1.85L106.49-1.85Q106.44-2.2 106.54-3.3L106.54-3.3Q106.64-4.4 106.64-5.3L106.64-5.3Q106.64-6.6 106.79-9.3L106.79-9.3 106.89-14.1 106.94-18.15Q106.94-22.25 106.69-23.6L106.69-23.6Q106.29-25.45 105.07-26.08 103.84-26.7 101.24-26.7L101.24-26.7Q99.19-26.7 97.02-25.85 94.84-25 93.49-23.95L93.49-23.95Q93.49-20.05 93.54-17.05L93.54-17.05 93.54-10.15 93.54-8.25 93.49-0.8Q93.49-0.4 93.27-0.2 93.04 0 92.39 0L92.39 0 90.64 0ZM139.19 0.55Q135.54 0.55 133.34-0.9 131.14-2.35 131.14-6.05L131.14-6.05Q131.39-8.45 134.69-9.6 137.99-10.75 142.09-10.75L142.09-10.75Q143.39-10.75 145.19-10.95L145.19-10.95Q146.99-11.15 148.49-11.15L148.49-11.15Q148.29-16.55 147.81-19.63 147.34-22.7 146.21-24.25 145.09-25.8 143.04-25.8L143.04-25.8Q141.54-25.8 140.19-25.1 138.84-24.4 136.84-22.9L136.84-22.9Q135.19-21.7 135.19-21.7L135.19-21.7Q135.14-21.7 134.86-21.53 134.59-21.35 134.34-21.4L134.34-21.4Q133.89-21.5 133.89-21.85L133.89-21.85Q133.69-22.15 133.41-23.2 133.14-24.25 133.14-24.7L133.14-24.7Q133.14-25 133.74-25.4L133.74-25.4Q136.29-27.3 138.06-28.23 139.84-29.15 141.11-29.4 142.39-29.65 144.09-29.65L144.09-29.65Q149.09-29.65 150.81-26.43 152.54-23.2 152.54-17.85L152.54-17.85Q152.54-16.45 152.44-14.05L152.44-14.05Q152.44-12.6 152.24-9.8L152.24-9.8 152.19-8.6 152.24-5.65Q152.34-3.65 152.34-2.6L152.34-2.6 152.29-1.1Q152.19 0.05 151.39 0.05L151.39 0.05 150.99 0 148.94 0Q148.74 0 148.56-0.18 148.39-0.35 148.39-0.6L148.39-0.6 148.39-1Q145.39-0.15 143.59 0.2 141.79 0.55 139.19 0.55L139.19 0.55ZM139.24-2.3Q144.59-2.3 148.39-4.1L148.39-4.1 148.54-8.75Q146.19-8.95 144.49-8.95L144.49-8.95 141.54-8.9Q139.14-8.9 137.24-7.98 135.34-7.05 135.19-5.4L135.19-5.4Q135.19-3.6 136.04-2.95 136.89-2.3 139.24-2.3L139.24-2.3Z" opacity="1" transform="matrix(1,0,0,1,0,0)" fill="#ed1703" class="undefined-yy-0"></path></svg></g><g><svg xmlns="http://www.w3.org/2000/svg" xmlns:xlink="http://www.w3.org/1999/xlink" version="1.1" x="165.31642903225807" y="0" viewBox="5 7.872999999999999 90 84.254" enable-background="new 0 0 100 100" xml:space="preserve" height="61.90937741935484" width="66.13150672658787" class="icon-cg-0" data-fill-palette-color="accent" id="cg-0"><g fill="#ed1703" data-fill-palette-color="accent"><path fill="#ed1703" d="M60.532 7.873c-8.872 0-16.168 6.702-17.122 15.319h-4.058c-0.954-8.617-8.247-15.319-17.118-15.319C12.712 7.873 5 15.588 5 25.106c0 9.518 7.712 17.234 17.234 17.234 8.198 0 15.046-5.733 16.792-13.404h4.709c1.747 7.671 8.595 13.404 16.797 13.404 9.518 0 17.233-7.716 17.233-17.234C77.766 15.588 70.05 7.873 60.532 7.873" data-fill-palette-color="accent"></path><path fill="#ed1703" d="M91.17 40.425c-2.116 0-3.829 1.717-3.829 3.83v2.461l-10.103 2.887c-0.822 0.234-1.388 0.987-1.388 1.84v8.6c0 0.856 0.565 1.606 1.388 1.842l10.103 2.887v2.461c0 2.113 1.713 3.83 3.829 3.83 2.113 0 3.83-1.717 3.83-3.83V44.255C95 42.142 93.283 40.425 91.17 40.425" data-fill-palette-color="accent"></path><path fill="#ed1703" d="M41.383 37.837c-4.144 6.279-11.22 10.248-19.148 10.248-4.189 0-8.104-1.145-11.489-3.108v18.427c0 2.115 1.713 3.83 3.829 3.83h15.548L10.745 86.697v5.43h5.396l24.793-24.894h0.976l24.789 24.894h5.322v-5.513L52.719 67.234h15.473c2.113 0 3.83-1.715 3.83-3.83V44.977c-3.389 1.963-7.305 3.108-11.489 3.108C52.6 48.085 45.523 44.117 41.383 37.837" data-fill-palette-color="accent"></path></g></svg></g><g transform="matrix(1,0,0,1,246.064364791104,11.466785483870968)"><svg width="181.15000000000003" viewBox="3.1 -37.162986924043004 181.13 38.262986924043005" height="38.262903225806454" data-palette-color="#ed1703"><path d="M4.4-0.15Q3.6-0.05 3.35-0.48 3.1-0.9 3.1-1.8L3.1-1.8Q3.1-2.9 3.15-3.8L3.15-3.8 3.2-8 3.3-13.9Q3.6-24.5 3.6-30.45L3.6-30.45Q3.6-32.25 3.55-32.6L3.55-32.6Q3.45-33.7 3.45-33.9L3.45-33.9Q3.45-35.2 4-35.2L4-35.2Q4.25-35.2 5.03-35.15 5.8-35.1 7.2-35.1L7.2-35.1Q7.6-35.1 9.25-35.15 10.9-35.2 12.7-35.2L12.7-35.2Q15.35-35.2 17.75-35.05L17.75-35.05Q21.2-34.85 23.48-32.25 25.75-29.65 25.75-24.45L25.75-24.45Q25.75-21.05 24.3-19.05 22.85-17.05 20.95-16.28 19.05-15.5 17.6-15.5L17.6-15.5Q16.25-15.5 13.05-15.2L13.05-15.2Q11.2-15 10.05-14.95L10.05-14.95Q9.95-10.35 9.95-8.7L9.95-8.7Q9.95-2.2 10.1-1.65L10.1-1.65Q10.2-1.15 9.93-0.78 9.65-0.4 9.22-0.28 8.8-0.15 8.45-0.3L8.45-0.3Q8.3-0.35 7.6-0.35L7.6-0.35Q6.1-0.35 4.4-0.15L4.4-0.15ZM16.2-19.1Q18.05-19.1 19.65-20.2 21.25-21.3 21.25-24.15L21.25-24.15Q21.25-27.2 20-28.78 18.75-30.35 16.35-30.8L16.35-30.8Q12.6-31.55 10.45-31.4L10.45-31.4Q10.45-30 10.4-29.3L10.4-29.3Q10.3-26.5 10.15-25.3L10.15-25.3Q9.95-23.55 10.05-21.35L10.05-21.35 10.15-19.4 12.5-19.25Q13.85-19.1 16.2-19.1L16.2-19.1ZM34.45 0.55Q30.8 0.55 28.6-0.9 26.4-2.35 26.4-6.05L26.4-6.05Q26.65-8.45 29.95-9.6 33.25-10.75 37.35-10.75L37.35-10.75Q38.65-10.75 40.45-10.95L40.45-10.95Q42.25-11.15 43.75-11.15L43.75-11.15Q43.55-16.55 43.07-19.63 42.6-22.7 41.47-24.25 40.35-25.8 38.3-25.8L38.3-25.8Q36.8-25.8 35.45-25.1 34.1-24.4 32.1-22.9L32.1-22.9Q30.45-21.7 30.45-21.7L30.45-21.7Q30.4-21.7 30.12-21.53 29.85-21.35 29.6-21.4L29.6-21.4Q29.15-21.5 29.15-21.85L29.15-21.85Q28.95-22.15 28.67-23.2 28.4-24.25 28.4-24.7L28.4-24.7Q28.4-25 29-25.4L29-25.4Q31.55-27.3 33.32-28.23 35.1-29.15 36.37-29.4 37.65-29.65 39.35-29.65L39.35-29.65Q44.35-29.65 46.07-26.43 47.8-23.2 47.8-17.85L47.8-17.85Q47.8-16.45 47.7-14.05L47.7-14.05Q47.7-12.6 47.5-9.8L47.5-9.8 47.45-8.6 47.5-5.65Q47.6-3.65 47.6-2.6L47.6-2.6 47.55-1.1Q47.45 0.05 46.65 0.05L46.65 0.05 46.25 0 44.2 0Q44 0 43.82-0.18 43.65-0.35 43.65-0.6L43.65-0.6 43.65-1Q40.65-0.15 38.85 0.2 37.05 0.55 34.45 0.55L34.45 0.55ZM34.5-2.3Q39.85-2.3 43.65-4.1L43.65-4.1 43.8-8.75Q41.45-8.95 39.75-8.95L39.75-8.95 36.8-8.9Q34.4-8.9 32.5-7.98 30.6-7.05 30.45-5.4L30.45-5.4Q30.45-3.6 31.3-2.95 32.15-2.3 34.5-2.3L34.5-2.3ZM61.64 0.15Q61.59 0.15 60.87 0.05 60.14-0.05 58.94-0.05L58.94-0.05 55.09 0Q54.34 0 54.34-0.6L54.34-0.6Q54.34-0.8 54.37-1.95 54.39-3.1 54.39-5.9L54.39-5.9Q54.39-8.75 54.57-11.4 54.74-14.05 54.74-14.35L54.74-14.35 55.04-23.4 55.09-28.55Q55.09-29.1 55.34-29.15L55.34-29.15Q55.59-29.15 56.44-29.1 57.29-29.05 58.59-29.05L58.59-29.05Q59.59-29.05 60.57-29.1 61.54-29.15 61.74-29.15L61.74-29.15Q61.89-29.15 62.02-28.98 62.14-28.8 62.14-28.7L62.14-28.7 62.24-27.3Q63.94-28.4 66.22-29.18 68.5-29.95 69.69-29.95L69.69-29.95Q70-29.95 70.09-29.9L70.09-29.9Q70.19-29.85 70.32-29.48 70.44-29.1 70.55-28.85L70.55-28.85Q71.05-27.6 71.19-25.85L71.19-25.85Q71.25-25.05 71.44-24L71.44-24Q71.55-23.55 71.55-22.9L71.55-22.9Q71.55-22.5 71.5-22.45L71.5-22.45Q71.09-21.85 70.3-21.63 69.5-21.4 67.94-21.2L67.94-21.2Q66-21 64.59-20.6L64.59-20.6 62.39-20.1 62.44-18.1Q62.44-16.45 62.49-16.4L62.49-16.4 62.54-12.15Q62.64-8.85 62.64-3.15L62.64-3.15Q62.64-0.95 62.44-0.2L62.44-0.2Q62.44 0.15 61.64 0.15L61.64 0.15ZM80.79 0.55Q77.14 0.55 74.94-0.9 72.74-2.35 72.74-6.05L72.74-6.05Q72.99-8.45 76.29-9.6 79.59-10.75 83.69-10.75L83.69-10.75Q84.99-10.75 86.79-10.95L86.79-10.95Q88.59-11.15 90.09-11.15L90.09-11.15Q89.89-16.55 89.42-19.63 88.94-22.7 87.82-24.25 86.69-25.8 84.64-25.8L84.64-25.8Q83.14-25.8 81.79-25.1 80.44-24.4 78.44-22.9L78.44-22.9Q76.79-21.7 76.79-21.7L76.79-21.7Q76.74-21.7 76.47-21.53 76.19-21.35 75.94-21.4L75.94-21.4Q75.49-21.5 75.49-21.85L75.49-21.85Q75.29-22.15 75.02-23.2 74.74-24.25 74.74-24.7L74.74-24.7Q74.74-25 75.34-25.4L75.34-25.4Q77.89-27.3 79.67-28.23 81.44-29.15 82.72-29.4 83.99-29.65 85.69-29.65L85.69-29.65Q90.69-29.65 92.42-26.43 94.14-23.2 94.14-17.85L94.14-17.85Q94.14-16.45 94.04-14.05L94.04-14.05Q94.04-12.6 93.84-9.8L93.84-9.8 93.79-8.6 93.84-5.65Q93.94-3.65 93.94-2.6L93.94-2.6 93.89-1.1Q93.79 0.05 92.99 0.05L92.99 0.05 92.59 0 90.54 0Q90.34 0 90.17-0.18 89.99-0.35 89.99-0.6L89.99-0.6 89.99-1Q86.99-0.15 85.19 0.2 83.39 0.55 80.79 0.55L80.79 0.55ZM80.84-2.3Q86.19-2.3 89.99-4.1L89.99-4.1 90.14-8.75Q87.79-8.95 86.09-8.95L86.09-8.95 83.14-8.9Q80.74-8.9 78.84-7.98 76.94-7.05 76.79-5.4L76.79-5.4Q76.79-3.6 77.64-2.95 78.49-2.3 80.84-2.3L80.84-2.3ZM110.34 0.55Q107.79 0.55 105.77-0.6 103.74-1.75 102.34-4L102.34-4Q99.74-8.2 99.74-15.05L99.74-15.05Q99.74-18.2 100.49-20.48 101.24-22.75 102.84-24.8L102.84-24.8Q104.34-26.7 106.09-27.65L106.09-27.65Q107.99-28.65 109.89-28.65L109.89-28.65Q112.34-28.65 113.79-28.25 115.24-27.85 115.66-27.5 116.09-27.15 116.84-26.4L116.84-26.4 116.94-34.65Q116.94-35.95 117.19-36.52 117.44-37.1 118.04-37.1L118.04-37.1 120.24-37.05Q121.09-37.05 121.54-37.15L121.54-37.15Q122.19-37.25 122.44-36.58 122.69-35.9 122.69-35.1L122.69-35.1 122.59-0.9Q122.59-0.25 122.31 0 122.04 0.25 121.49 0.25L121.49 0.25Q119.74 0.15 117.89 0.15L117.89 0.15Q117.09 0.15 116.77-0.05 116.44-0.25 116.44-1L116.44-1 116.44-2Q114.94-0.85 113.44-0.15 111.94 0.55 110.34 0.55L110.34 0.55ZM110.19-2.9Q112.04-2.9 113.49-3.6 114.94-4.3 115.72-5.45 116.49-6.6 116.49-7.8L116.49-7.8Q116.49-9 116.69-11.3L116.69-11.3 116.79-13.5Q116.79-14.55 116.69-16.25L116.69-16.25Q116.59-18.25 116.59-20.2L116.59-20.2Q116.59-21.5 115.64-22.5 114.69-23.5 113.29-24.05 111.89-24.6 110.69-24.6L110.69-24.6Q109.14-24.6 107.74-23.75L107.74-23.75Q106.34-22.85 105.44-21.45L105.44-21.45Q104.39-19.8 103.89-18.25 103.39-16.7 103.39-14.65L103.39-14.65Q103.39-9.55 104.99-6.45L104.99-6.45Q106.74-2.9 110.19-2.9L110.19-2.9ZM129.89 0.4Q129.49 0.4 129.39 0.33 129.29 0.25 129.29 0L129.29 0Q129.29-0.15 129.31-0.48 129.34-0.8 129.34-1.35L129.34-1.35 129.39-6.8 129.49-15.5Q129.49-16.9 129.69-21.5L129.69-21.5Q129.89-26.65 129.84-27.15L129.84-27.15 129.79-28Q129.79-28.55 129.94-28.83 130.09-29.1 130.49-29.1L130.49-29.1 132.59-29.05Q133.04-29.05 133.04-28.5L133.04-28.5Q133.04-28.25 132.99-28 132.94-27.75 132.94-27.5L132.94-27.5Q132.84-26.45 132.74-22.9L132.74-22.9Q132.74-21.75 132.54-17.05L132.54-17.05Q132.49-15.5 132.44-14.03 132.39-12.55 132.39-11.45L132.39-11.45Q132.39-9.05 132.46-5.38 132.54-1.7 132.64-1L132.64-1Q132.69-0.8 132.69-0.45L132.69-0.45Q132.69-0.1 132.61 0.03 132.54 0.15 132.24 0.2L132.24 0.2Q131.84 0.4 130.96 0.4 130.09 0.4 129.89 0.4L129.89 0.4ZM131.54-30.95Q130.49-30.95 129.61-31.75 128.74-32.55 128.74-33.75L128.74-33.75Q128.74-34.8 129.51-35.63 130.29-36.45 131.34-36.45L131.34-36.45Q132.59-36.45 133.59-35.8 134.59-35.15 134.59-34L134.59-34Q134.59-32.6 133.59-31.78 132.59-30.95 131.54-30.95L131.54-30.95ZM147.84 0.85Q144.79 0.85 142.79 0.1 140.79-0.65 140.36-1.03 139.94-1.4 138.49-2.85L138.49-2.85Q138.19-3.15 138.34-3.25L138.34-3.25Q138.44-3.5 138.69-3.8L138.69-3.8 139.34-4.6Q139.59-4.95 140.24-5.75L140.24-5.75Q140.39-5.9 140.59-5.9L140.59-5.9Q140.79-5.9 141.14-5.68 141.49-5.45 141.74-5.2L141.74-5.2Q141.79-5.15 142.31-4.73 142.84-4.3 143.84-3.98 144.84-3.65 146.04-3.65L146.04-3.65Q147.64-3.65 148.79-4.28 149.94-4.9 149.94-6.9L149.94-6.9Q149.94-8.5 149.26-9.6 148.59-10.7 147.59-11.43 146.59-12.15 144.84-13.1L144.84-13.1Q142.89-14.2 141.69-15.08 140.49-15.95 139.66-17.45 138.84-18.95 138.84-21.15L138.84-21.15Q138.84-23.75 140.24-25.75 141.64-27.75 144.06-28.83 146.49-29.9 149.44-29.9L149.44-29.9Q154.14-29.9 156.56-27.93 158.99-25.95 159.09-25.9L159.09-25.9Q159.29-25.75 159.29-25.55L159.29-25.55Q159.29-25.4 159.19-25.25 159.09-25.1 159.04-24.95L159.04-24.95Q158.84-24.65 158.36-23.9 157.89-23.15 157.59-22.85L157.59-22.85Q157.49-22.7 157.34-22.48 157.19-22.25 157.06-22.2 156.94-22.15 156.74-22.15L156.74-22.15Q156.54-22.25 155.34-23.23 154.14-24.2 152.66-25.05 151.19-25.9 150.14-25.9L150.14-25.9Q149.04-25.9 148.59-25.18 148.14-24.45 148.14-22.75L148.14-22.75Q148.14-21.5 148.74-20.65 149.34-19.8 149.89-19.45 150.44-19.1 151.99-18.3L151.99-18.3Q153.84-17.55 155.21-16.75 156.59-15.95 157.86-13.95 159.14-11.95 159.14-8.65L159.14-8.65Q159.14 0.85 147.84 0.85L147.84 0.85ZM173.93 1.1Q167.33 1.1 165.13-3.98 162.93-9.05 162.93-14.85L162.93-14.85Q162.93-20.45 164.63-23.83 166.33-27.2 168.76-28.55 171.18-29.9 173.63-29.9L173.63-29.9Q178.23-29.9 180.58-27.48 182.93-25.05 183.58-21.73 184.23-18.4 184.23-14.25L184.23-14.25Q184.23-10.9 183.11-7.33 181.98-3.75 179.66-1.33 177.33 1.1 173.93 1.1L173.93 1.1ZM173.58-8.6Q175.23-8.6 176.01-10.15 176.78-11.7 176.78-13.9L176.78-13.9Q176.78-16.75 176.06-17.93 175.33-19.1 173.88-19.1L173.88-19.1Q170.78-19.1 170.78-13.5L170.78-13.5Q170.78-11.4 171.33-10 171.88-8.6 173.58-8.6L173.58-8.6Z" opacity="1" transform="matrix(1,0,0,1,0,0)" fill="#ed1703" class="undefined-yy-1"></path></svg></g></svg></g></svg></g></svg></g></svg></g></svg></g><defs></defs></svg><rect width="395.52" height="57.31641764638789" fill="none" stroke="none" visibility="hidden"></rect></g></svg></g></svg>